{"glyphs":{"0":{"ha":1075,"x_min":52,"x_max":1023,"o":"m 52 407 l 254 407 q 307 289 269 338 q 408 204 348 234 q 536 174 469 174 q 713 234 635 174 q 821 407 792 296 l 1023 407 q 906 143 1002 256 q 741 19 838 63 q 537 -26 644 -26 q 264 58 388 -26 q 80 290 136 146 q 52 407 59 342 m 254 519 l 52 519 q 161 774 69 663 q 328 904 231 858 q 537 951 427 951 q 802 874 680 951 q 994 637 934 789 q 1023 519 1014 584 l 821 519 q 766 637 802 590 q 665 722 726 692 q 536 752 604 752 q 408 722 469 752 q 307 637 348 692 q 254 519 269 587 z "},"1":{"ha":402,"x_min":34,"x_max":315,"o":"m 115 0 l 115 614 l 34 568 l 34 788 l 315 956 l 315 0 l 115 0 z "},"2":{"ha":734,"x_min":-7,"x_max":673,"o":"m -7 0 l 146 195 l 673 195 l 673 0 l -7 0 m 490 313 l 240 313 l 406 528 q 446 584 433 561 q 463 643 463 612 q 431 722 463 688 q 354 753 400 753 q 240 625 248 753 l 42 625 q 102 826 43 747 q 214 919 146 886 q 356 951 280 951 q 582 854 492 951 q 666 643 666 764 q 628 500 666 569 q 567 411 608 463 l 490 313 z "},"3":{"ha":777,"x_min":55,"x_max":709,"o":"m 55 309 l 255 309 q 285 220 264 247 q 383 172 320 172 q 477 210 441 172 q 510 292 510 244 q 509 318 510 302 q 599 368 557 335 q 673 446 641 400 q 709 306 709 381 q 621 79 709 174 q 383 -24 524 -24 q 195 37 279 -24 q 55 309 68 130 m 372 370 l 372 565 q 429 583 409 569 q 469 660 469 610 q 443 727 469 699 q 377 755 416 755 q 298 711 322 755 q 280 652 287 692 l 85 652 q 143 831 89 758 q 246 918 185 886 q 377 949 308 949 q 583 865 497 949 q 665 660 665 784 q 535 417 665 503 q 372 370 471 376 z "},"4":{"ha":840,"x_min":-3,"x_max":789,"o":"m -3 227 l 178 421 l 363 421 l 363 227 l -3 227 m 475 0 l 475 743 l 675 957 l 675 421 l 789 421 l 789 227 l 675 227 l 675 0 l 475 0 z "},"5":{"ha":760,"x_min":43,"x_max":690,"o":"m 43 267 l 244 294 q 312 196 259 225 l 312 -13 q 119 98 193 9 q 43 267 58 173 m 422 -14 l 422 193 q 492 304 492 234 q 431 412 492 374 q 289 436 390 436 l 99 436 l 99 938 l 295 938 l 295 631 q 522 591 450 629 q 644 479 599 551 q 690 307 690 401 q 574 57 690 155 q 422 -14 511 3 m 407 743 l 407 938 l 648 938 l 648 743 l 407 743 z "},"6":{"ha":817,"x_min":69,"x_max":757,"o":"m 376 938 l 604 938 l 315 450 q 267 319 267 371 q 302 227 267 266 q 359 191 321 205 l 359 -11 q 173 81 252 5 q 69 322 69 180 q 96 452 69 387 q 143 545 113 492 l 376 938 m 454 470 l 555 640 q 665 559 626 601 q 732 453 708 514 q 757 327 757 391 q 711 156 757 236 q 560 17 660 65 q 470 -10 522 -1 l 470 193 q 562 326 562 229 q 523 425 562 386 q 454 470 500 448 z "},"7":{"ha":634,"x_min":5,"x_max":671,"o":"m 125 0 l 347 621 l 559 621 l 336 0 l 125 0 m 5 734 l 5 928 l 671 928 l 601 734 l 5 734 z "},"8":{"ha":863,"x_min":68,"x_max":794,"o":"m 380 171 l 380 -24 q 174 54 252 -12 q 98 155 126 95 q 68 291 68 220 q 159 509 68 418 q 104 671 104 588 q 156 835 104 762 q 380 949 233 941 l 380 758 q 304 679 304 743 q 380 598 304 613 l 380 403 q 267 290 267 389 q 380 171 267 186 m 483 -24 l 483 171 q 595 290 595 186 q 483 403 595 389 l 483 598 q 559 679 559 613 q 483 758 559 743 l 483 949 q 650 893 585 944 q 759 671 759 808 q 703 509 759 588 q 794 291 794 418 q 746 121 794 199 q 483 -24 667 -7 z "},"9":{"ha":806,"x_min":60,"x_max":748,"o":"m 441 0 l 214 0 l 503 487 q 550 618 550 566 q 515 711 550 672 q 458 746 496 732 l 458 948 q 644 857 564 932 q 748 616 748 758 q 722 486 748 551 q 674 393 705 446 l 441 0 m 363 468 l 262 298 q 152 378 191 337 q 60 610 60 475 q 106 782 60 701 q 257 921 157 873 q 347 948 296 939 l 347 745 q 256 612 256 709 q 294 513 256 552 q 363 468 317 490 z "}," ":{"ha":347,"x_min":0,"x_max":0,"o":""},"!":{"ha":441,"x_min":120,"x_max":320,"o":"m 120 0 l 120 195 l 320 195 l 320 0 l 120 0 m 120 308 l 120 928 l 320 928 l 320 308 l 120 308 z "},"\"":{"ha":694,"x_min":113,"x_max":582,"o":"m 113 526 l 113 928 l 313 928 l 313 526 l 113 526 m 382 526 l 382 928 l 582 928 l 582 526 l 382 526 z "},"#":{"ha":974,"x_min":74,"x_max":899,"o":"m 143 206 l 74 206 l 101 401 l 171 401 l 191 549 l 122 549 l 149 743 l 219 743 l 245 928 l 439 928 l 413 743 l 566 743 l 538 549 l 386 549 l 309 0 l 115 0 l 143 206 m 830 743 l 899 743 l 872 549 l 803 549 l 782 401 l 851 401 l 824 206 l 755 206 l 726 0 l 531 0 l 560 206 l 408 206 l 435 401 l 587 401 l 661 928 l 856 928 l 830 743 z "},"$":{"ha":718,"x_min":47,"x_max":662,"o":"m 254 937 l 254 1067 l 450 1067 l 450 928 q 574 826 526 899 q 619 673 616 762 l 412 673 q 340 753 402 753 q 281 724 302 753 q 266 676 266 703 q 307 612 266 632 q 367 595 319 606 l 276 416 q 147 481 193 439 q 66 676 66 557 q 111 829 66 762 q 254 937 163 908 m 254 -7 q 132 71 186 16 q 47 281 52 154 l 244 281 q 273 208 251 233 q 355 172 304 172 q 435 208 404 172 q 462 281 462 239 q 439 349 462 321 q 385 384 422 368 l 476 562 q 662 286 662 477 q 610 113 662 191 q 450 -8 553 26 l 450 -148 l 254 -148 l 254 -7 z "},"%":{"ha":1444,"x_min":46,"x_max":1398,"o":"m 46 620 l 174 620 q 205 548 183 578 q 337 482 256 482 q 469 548 420 482 q 501 620 490 576 l 629 620 q 559 456 617 525 q 460 382 518 409 q 338 355 401 355 q 174 406 248 355 q 46 620 62 481 m 174 677 l 46 677 q 113 835 57 768 q 212 912 154 884 q 338 941 272 941 q 496 895 424 941 q 629 677 611 821 l 501 677 q 469 749 490 721 q 337 814 420 814 q 205 748 256 814 q 174 677 183 719 m 814 250 l 943 250 q 974 178 951 208 q 1105 112 1024 112 q 1238 178 1188 112 q 1270 250 1259 205 l 1398 250 q 1327 86 1385 155 q 1229 12 1286 39 q 1106 -15 1171 -15 q 943 35 1017 -15 q 814 250 831 111 m 943 307 l 814 307 q 881 465 825 398 q 981 543 923 515 q 1106 571 1040 571 q 1265 524 1192 571 q 1398 307 1379 451 l 1270 307 q 1238 378 1259 351 q 1105 444 1188 444 q 974 378 1024 444 q 943 307 951 349 m 513 0 l 816 928 l 941 928 l 639 0 l 513 0 z "},"&":{"ha":916,"x_min":64,"x_max":852,"o":"m 464 195 l 464 0 l 404 0 q 260 14 311 0 q 109 128 164 41 q 64 286 64 198 q 90 401 64 345 q 264 303 155 323 q 262 281 262 289 q 396 195 262 195 l 464 195 m 576 0 l 576 366 l 395 366 q 252 384 302 366 q 111 496 161 415 q 68 651 68 564 q 182 875 68 793 q 386 928 257 928 l 464 928 l 464 733 l 394 733 q 307 719 334 733 q 264 648 264 698 q 308 576 264 597 q 397 562 336 562 l 576 562 l 576 731 l 776 731 l 776 562 l 852 562 l 852 366 l 776 366 l 776 0 l 576 0 z "},"'":{"ha":347,"x_min":74,"x_max":274,"o":"m 74 526 l 74 928 l 274 928 l 274 526 l 74 526 z "},"(":{"ha":591,"x_min":93,"x_max":546,"o":"m 546 13 l 436 -155 q 241 24 319 -79 q 93 464 93 222 q 254 921 93 721 q 436 1081 328 1013 l 546 916 q 293 465 293 748 q 399 145 293 286 q 546 13 456 69 z "},")":{"ha":591,"x_min":46,"x_max":499,"o":"m 46 13 q 193 145 135 69 q 299 465 299 286 q 46 916 299 749 l 156 1081 q 338 921 264 1012 q 499 464 499 721 q 351 24 499 222 q 156 -155 273 -79 l 46 13 z "},"*":{"ha":694,"x_min":62,"x_max":632,"o":"m 430 928 l 430 763 l 584 816 l 632 665 l 479 614 l 580 479 l 450 386 l 352 523 l 248 386 l 115 479 l 222 614 l 62 665 l 116 816 l 273 763 l 273 928 l 430 928 z "},"+":{"ha":833,"x_min":51,"x_max":783,"o":"m 319 560 l 319 829 l 515 829 l 515 560 l 783 560 l 783 365 l 515 365 l 515 97 l 319 97 l 319 365 l 51 365 l 51 560 l 319 560 z "},",":{"ha":441,"x_min":120,"x_max":320,"o":"m 120 -203 l 120 195 l 320 195 l 320 -4 l 120 -203 z "},"-":{"ha":366,"x_min":0,"x_max":366,"o":"m 0 364 l 0 562 l 366 562 l 366 364 l 0 364 z "},".":{"ha":441,"x_min":120,"x_max":320,"o":"m 120 0 l 120 195 l 320 195 l 320 0 l 120 0 z "},"/":{"ha":672,"x_min":93,"x_max":580,"o":"m 93 0 l 380 928 l 580 928 l 293 0 l 93 0 z "},":":{"ha":441,"x_min":120,"x_max":320,"o":"m 120 0 l 120 195 l 320 195 l 320 0 l 120 0 m 120 367 l 120 562 l 320 562 l 320 367 l 120 367 z "},";":{"ha":441,"x_min":120,"x_max":320,"o":"m 120 -203 l 120 195 l 320 195 l 320 -4 l 120 -203 m 120 367 l 120 562 l 320 562 l 320 367 l 120 367 z "},"<":{"ha":694,"x_min":46,"x_max":648,"o":"m 648 869 l 648 659 l 271 463 l 648 267 l 648 56 l 46 375 l 46 553 l 648 869 z "},"=":{"ha":833,"x_min":65,"x_max":769,"o":"m 65 518 l 65 713 l 769 713 l 769 518 l 65 518 m 65 212 l 65 408 l 769 408 l 769 212 l 65 212 z "},">":{"ha":694,"x_min":47,"x_max":648,"o":"m 47 869 l 648 553 l 648 375 l 47 56 l 47 267 l 424 463 l 47 659 l 47 869 z "},"?":{"ha":748,"x_min":45,"x_max":704,"o":"m 279 0 l 279 195 l 479 195 l 479 0 l 279 0 m 279 288 l 279 484 l 336 484 q 461 516 422 484 q 508 618 508 555 q 470 713 508 674 q 376 751 433 751 q 241 618 259 751 l 45 618 q 111 814 56 740 q 376 947 212 947 q 604 856 509 947 q 704 622 704 760 q 628 408 704 498 q 484 309 568 335 q 279 288 431 292 z "},"@":{"ha":1045,"x_min":51,"x_max":999,"o":"m 712 256 l 520 256 q 412 269 449 256 q 315 351 348 292 q 290 446 290 395 q 352 602 290 533 q 451 667 394 648 q 547 679 483 677 l 533 532 q 439 460 439 530 q 460 416 439 431 q 526 404 479 404 l 576 404 l 603 679 l 753 679 l 712 256 m 734 127 l 734 0 l 624 0 q 464 8 523 0 q 352 35 406 16 q 220 114 281 62 q 117 233 158 166 q 54 410 69 313 l 182 410 q 305 206 214 281 q 382 159 343 175 q 477 135 421 143 q 624 127 532 127 l 734 127 m 805 256 q 848 347 836 316 q 872 474 872 410 q 770 724 872 621 q 526 825 669 825 q 245 683 351 825 q 178 517 193 613 l 51 517 q 159 779 67 669 q 321 906 227 861 q 524 951 417 951 q 781 876 663 951 q 953 681 895 803 q 999 474 999 584 q 982 350 999 395 q 947 256 949 262 l 805 256 z "},"A":{"ha":877,"x_min":-70,"x_max":930,"o":"m -70 0 l 256 634 l 368 416 l 153 0 l -70 0 m 706 0 l 625 155 l 348 155 l 448 350 l 526 350 l 317 754 l 429 971 l 930 0 l 706 0 z "},"B":{"ha":850,"x_min":93,"x_max":802,"o":"m 93 0 l 93 928 l 293 928 l 293 0 l 93 0 m 404 0 l 404 195 l 469 195 q 553 205 526 195 q 605 283 605 223 q 603 303 605 291 q 778 400 705 317 q 802 279 802 343 q 756 124 802 195 q 608 14 704 42 q 470 0 562 0 l 404 0 m 404 366 l 404 561 l 469 561 q 557 573 530 561 q 603 648 603 595 q 566 716 603 695 q 475 731 540 731 l 404 731 l 404 928 l 454 928 q 593 916 546 928 q 749 808 690 891 q 798 650 798 741 q 687 420 798 503 q 570 372 637 383 q 474 366 534 366 l 404 366 z "},"C":{"ha":980,"x_min":51,"x_max":933,"o":"m 487 176 l 487 -26 q 241 75 345 -5 q 100 249 150 146 q 51 462 51 349 q 152 760 51 629 q 487 951 274 920 l 487 749 q 349 681 403 729 q 277 582 303 640 q 251 462 251 524 q 278 339 251 398 q 355 239 306 280 q 487 176 407 196 m 598 -26 l 598 176 q 775 287 707 198 l 933 165 q 598 -26 802 -2 m 598 749 l 598 951 q 781 894 697 939 q 931 762 871 844 l 774 638 q 598 749 705 729 z "},"D":{"ha":1021,"x_min":93,"x_max":971,"o":"m 93 0 l 93 928 l 293 928 l 293 0 l 93 0 m 404 0 l 404 195 l 476 195 q 608 214 560 195 q 736 327 688 246 q 772 462 772 389 q 730 610 772 543 q 597 717 680 687 q 454 733 550 733 l 404 733 l 404 928 l 475 928 q 669 900 589 928 q 888 728 800 854 q 971 465 971 609 q 895 207 971 324 q 667 25 806 73 q 483 0 592 0 l 404 0 z "},"E":{"ha":852,"x_min":93,"x_max":772,"o":"m 93 0 l 93 928 l 293 928 l 293 0 l 93 0 m 406 0 l 406 195 l 772 195 l 772 0 l 406 0 m 406 366 l 406 561 l 772 561 l 772 366 l 406 366 m 406 734 l 406 928 l 772 928 l 772 734 l 406 734 z "},"F":{"ha":773,"x_min":83,"x_max":736,"o":"m 83 0 l 83 928 l 283 928 l 283 0 l 83 0 m 388 366 l 388 561 l 736 561 l 736 366 l 388 366 m 388 734 l 388 928 l 736 928 l 736 734 l 388 734 z "},"G":{"ha":1072,"x_min":51,"x_max":1025,"o":"m 736 253 l 979 253 q 874 108 937 167 q 719 9 806 45 q 539 -26 631 -26 q 279 50 402 -26 q 104 239 165 121 q 51 463 51 342 q 188 804 51 663 q 349 913 257 874 q 540 951 441 951 q 890 800 744 951 l 745 663 q 539 751 652 751 q 326 658 410 751 q 250 463 250 576 q 334 258 250 342 q 538 174 420 174 q 736 253 655 174 m 540 363 l 540 558 l 1015 558 q 1025 461 1025 507 q 1015 363 1025 416 l 540 363 z "},"H":{"ha":1004,"x_min":93,"x_max":912,"o":"m 93 0 l 93 928 l 293 928 l 293 0 l 93 0 m 712 0 l 712 928 l 912 928 l 912 0 l 712 0 m 373 368 l 373 562 l 632 562 l 632 368 l 373 368 z "},"I":{"ha":385,"x_min":93,"x_max":293,"o":"m 93 0 l 93 928 l 293 928 l 293 0 l 93 0 z "},"J":{"ha":764,"x_min":7,"x_max":680,"o":"m 480 928 l 680 928 l 680 357 q 660 193 680 250 q 499 12 619 75 q 399 -19 453 -11 l 399 177 q 458 225 441 195 q 480 348 479 264 l 480 928 m 289 177 l 289 -19 q 68 115 153 -3 q 7 309 10 198 l 205 309 q 289 177 212 212 z "},"K":{"ha":868,"x_min":93,"x_max":918,"o":"m 93 0 l 93 928 l 293 928 l 293 0 l 93 0 m 328 463 l 450 634 l 918 0 l 671 0 l 328 463 m 519 728 l 663 928 l 909 928 l 644 561 l 519 728 z "},"L":{"ha":648,"x_min":93,"x_max":648,"o":"m 93 0 l 93 928 l 293 928 l 293 0 l 93 0 m 380 0 l 380 195 l 648 195 l 648 0 l 380 0 z "},"M":{"ha":1099,"x_min":93,"x_max":1007,"o":"m 93 0 l 93 563 l 293 402 l 293 0 l 93 0 m 807 0 l 807 545 l 549 338 l 93 707 l 93 962 l 550 593 l 1007 962 l 1007 0 l 807 0 z "},"N":{"ha":1005,"x_min":93,"x_max":913,"o":"m 93 0 l 93 547 l 293 372 l 293 0 l 93 0 m 93 694 l 93 958 l 713 410 l 713 928 l 913 928 l 913 -30 l 93 694 z "},"O":{"ha":1073,"x_min":51,"x_max":1022,"o":"m 51 407 l 253 407 q 306 289 268 338 q 408 204 347 234 q 535 174 468 174 q 712 234 634 174 q 820 407 791 296 l 1022 407 q 905 143 1002 256 q 741 19 837 63 q 536 -26 643 -26 q 263 58 387 -26 q 79 290 135 146 q 51 407 58 342 m 253 519 l 51 519 q 161 774 68 663 q 327 904 231 858 q 536 951 427 951 q 801 874 680 951 q 993 637 933 789 q 1022 519 1013 584 l 820 519 q 766 637 802 590 q 664 722 725 692 q 535 752 603 752 q 408 722 468 752 q 306 637 347 692 q 253 519 268 587 z "},"P":{"ha":816,"x_min":83,"x_max":791,"o":"m 83 0 l 83 928 l 283 928 l 283 0 l 83 0 m 397 367 l 397 562 l 462 562 q 545 573 519 562 q 593 648 593 593 q 559 715 593 693 q 471 732 533 732 l 397 732 l 397 928 l 460 928 q 605 911 555 928 q 745 803 693 881 q 791 648 791 732 q 749 501 791 570 q 622 389 703 423 q 473 367 569 367 l 397 367 z "},"Q":{"ha":1027,"x_min":51,"x_max":1000,"o":"m 1000 195 l 1000 0 l 625 0 q 414 18 486 1 q 254 89 328 38 q 130 214 180 140 q 55 410 71 302 l 256 410 q 374 246 289 302 q 526 199 437 207 q 662 195 566 195 l 1000 195 m 968 309 l 745 309 q 801 475 801 391 q 720 672 801 591 q 525 752 640 752 q 309 650 392 752 q 250 517 264 594 l 51 517 q 159 779 66 669 q 321 906 227 861 q 524 951 417 951 q 781 876 663 951 q 954 680 895 804 q 999 478 999 584 q 968 309 999 394 z "},"R":{"ha":848,"x_min":93,"x_max":800,"o":"m 93 0 l 93 928 l 293 928 l 293 0 l 93 0 m 406 367 l 406 562 l 471 562 q 554 573 528 562 q 602 648 602 593 q 568 715 602 694 q 480 732 541 732 l 406 732 l 406 928 l 469 928 q 614 911 564 928 q 753 803 702 881 q 800 648 800 732 q 758 501 800 570 q 631 389 711 423 q 481 367 578 367 l 406 367 m 584 0 l 483 285 q 681 328 602 288 l 795 0 l 584 0 z "},"S":{"ha":709,"x_min":45,"x_max":661,"o":"m 45 279 l 243 279 q 272 205 250 231 q 353 170 303 170 q 433 205 403 170 q 460 279 460 237 q 437 347 460 319 q 384 382 421 366 l 475 559 q 661 283 661 475 q 579 72 661 160 q 353 -26 489 -26 q 168 35 249 -26 q 45 279 54 122 m 618 676 l 411 676 q 338 755 401 755 q 279 726 301 755 q 264 680 264 706 q 306 615 264 635 q 366 598 319 609 l 275 418 q 146 484 191 441 q 64 679 64 559 q 137 866 64 789 q 340 951 217 951 q 505 900 434 951 q 618 676 610 823 z "},"T":{"ha":570,"x_min":-28,"x_max":598,"o":"m 186 0 l 186 621 l 386 621 l 386 0 l 186 0 m -28 734 l -28 928 l 598 928 l 598 734 l -28 734 z "},"U":{"ha":930,"x_min":83,"x_max":847,"o":"m 83 928 l 283 928 l 283 417 q 292 311 283 345 q 409 186 311 222 l 409 -18 q 283 26 343 -7 q 180 107 224 58 q 95 269 117 176 q 83 399 83 317 l 83 928 m 647 928 l 847 928 l 847 399 q 814 203 846 279 q 656 31 767 97 q 519 -18 588 -8 l 519 186 q 618 258 585 208 q 644 339 638 289 q 647 417 647 366 l 647 928 z "},"V":{"ha":786,"x_min":-119,"x_max":882,"o":"m 382 -43 l -119 928 l 104 928 l 494 173 l 382 -43 m 444 511 l 659 928 l 882 928 l 556 296 l 444 511 z "},"W":{"ha":1177,"x_min":-68,"x_max":1240,"o":"m 330 -32 l -68 928 l 148 928 l 445 207 l 330 -32 m 407 586 l 585 958 l 943 215 l 842 -32 l 585 499 l 509 339 l 407 586 m 884 591 l 1025 928 l 1240 928 l 1000 352 l 884 591 z "},"X":{"ha":787,"x_min":-73,"x_max":886,"o":"m -73 0 l 214 389 l 337 222 l 173 0 l -73 0 m 640 0 l -43 928 l 204 928 l 886 0 l 640 0 m 475 745 l 612 928 l 858 928 l 600 578 l 475 745 z "},"Y":{"ha":712,"x_min":-92,"x_max":806,"o":"m 228 0 l 228 476 l 559 928 l 806 928 l 428 411 l 428 0 l 228 0 m 157 576 l -92 928 l 153 928 l 281 745 l 157 576 z "},"Z":{"ha":825,"x_min":-37,"x_max":836,"o":"m -37 0 l 94 195 l 836 195 l 836 0 l -37 0 m 168 307 l 376 620 l 616 620 l 408 307 l 168 307 m 19 734 l 19 928 l 822 928 l 692 734 l 19 734 z "},"[":{"ha":514,"x_min":93,"x_max":458,"o":"m 93 1057 l 458 1057 l 458 860 l 293 860 l 293 69 l 458 69 l 458 -128 l 93 -128 l 93 1057 z "},"\\":{"ha":672,"x_min":93,"x_max":580,"o":"m 580 0 l 380 0 l 93 928 l 293 928 l 580 0 z "},"]":{"ha":514,"x_min":56,"x_max":421,"o":"m 421 1057 l 421 -128 l 56 -128 l 56 69 l 221 69 l 221 860 l 56 860 l 56 1057 l 421 1057 z "},"^":{"ha":694,"x_min":20,"x_max":675,"o":"m 208 486 l 20 486 l 230 931 l 465 931 l 675 486 l 487 486 l 347 788 l 208 486 z "},"_":{"ha":694,"x_min":0,"x_max":694,"o":"m 0 -74 l 694 -74 l 694 -269 l 0 -269 l 0 -74 z "},"`":{"ha":694,"x_min":138,"x_max":446,"o":"m 446 1000 l 274 1000 l 138 1221 l 309 1221 l 446 1000 z "},"a":{"ha":877,"x_min":-70,"x_max":930,"o":"m -70 0 l 256 634 l 368 416 l 153 0 l -70 0 m 706 0 l 625 155 l 348 155 l 448 350 l 526 350 l 317 754 l 429 971 l 930 0 l 706 0 z "},"b":{"ha":850,"x_min":93,"x_max":802,"o":"m 93 0 l 93 928 l 293 928 l 293 0 l 93 0 m 404 0 l 404 195 l 469 195 q 553 205 526 195 q 605 283 605 223 q 603 303 605 291 q 778 400 705 317 q 802 279 802 343 q 756 124 802 195 q 608 14 704 42 q 470 0 562 0 l 404 0 m 404 366 l 404 561 l 469 561 q 557 573 530 561 q 603 648 603 595 q 566 716 603 695 q 475 731 540 731 l 404 731 l 404 928 l 454 928 q 593 916 546 928 q 749 808 690 891 q 798 650 798 741 q 687 420 798 503 q 570 372 637 383 q 474 366 534 366 l 404 366 z "},"c":{"ha":980,"x_min":51,"x_max":933,"o":"m 487 176 l 487 -26 q 241 75 345 -5 q 100 249 150 146 q 51 462 51 349 q 152 760 51 629 q 487 951 274 920 l 487 749 q 349 681 403 729 q 277 582 303 640 q 251 462 251 524 q 278 339 251 398 q 355 239 306 280 q 487 176 407 196 m 598 -26 l 598 176 q 775 287 707 198 l 933 165 q 598 -26 802 -2 m 598 749 l 598 951 q 781 894 697 939 q 931 762 871 844 l 774 638 q 598 749 705 729 z "},"d":{"ha":1021,"x_min":93,"x_max":971,"o":"m 93 0 l 93 928 l 293 928 l 293 0 l 93 0 m 404 0 l 404 195 l 476 195 q 608 214 560 195 q 736 327 688 246 q 772 462 772 389 q 730 610 772 543 q 597 717 680 687 q 454 733 550 733 l 404 733 l 404 928 l 475 928 q 669 900 589 928 q 888 728 800 854 q 971 465 971 609 q 895 207 971 324 q 667 25 806 73 q 483 0 592 0 l 404 0 z "},"e":{"ha":852,"x_min":93,"x_max":772,"o":"m 93 0 l 93 928 l 293 928 l 293 0 l 93 0 m 406 0 l 406 195 l 772 195 l 772 0 l 406 0 m 406 366 l 406 561 l 772 561 l 772 366 l 406 366 m 406 734 l 406 928 l 772 928 l 772 734 l 406 734 z "},"f":{"ha":773,"x_min":83,"x_max":736,"o":"m 83 0 l 83 928 l 283 928 l 283 0 l 83 0 m 388 366 l 388 561 l 736 561 l 736 366 l 388 366 m 388 734 l 388 928 l 736 928 l 736 734 l 388 734 z "},"g":{"ha":1072,"x_min":51,"x_max":1025,"o":"m 736 253 l 979 253 q 874 108 937 167 q 719 9 806 45 q 539 -26 631 -26 q 279 50 402 -26 q 104 239 165 121 q 51 463 51 342 q 188 804 51 663 q 349 913 257 874 q 540 951 441 951 q 890 800 744 951 l 745 663 q 539 751 652 751 q 326 658 410 751 q 250 463 250 576 q 334 258 250 342 q 538 174 420 174 q 736 253 655 174 m 540 363 l 540 558 l 1015 558 q 1025 461 1025 507 q 1015 363 1025 416 l 540 363 z "},"h":{"ha":1004,"x_min":93,"x_max":912,"o":"m 93 0 l 93 928 l 293 928 l 293 0 l 93 0 m 712 0 l 712 928 l 912 928 l 912 0 l 712 0 m 373 368 l 373 562 l 632 562 l 632 368 l 373 368 z "},"i":{"ha":385,"x_min":93,"x_max":293,"o":"m 93 0 l 93 928 l 293 928 l 293 0 l 93 0 z "},"j":{"ha":764,"x_min":7,"x_max":680,"o":"m 480 928 l 680 928 l 680 357 q 660 193 680 250 q 499 12 619 75 q 399 -19 453 -11 l 399 177 q 458 225 441 195 q 480 348 479 264 l 480 928 m 289 177 l 289 -19 q 68 115 153 -3 q 7 309 10 198 l 205 309 q 289 177 212 212 z "},"k":{"ha":868,"x_min":93,"x_max":918,"o":"m 93 0 l 93 928 l 293 928 l 293 0 l 93 0 m 328 463 l 450 634 l 918 0 l 671 0 l 328 463 m 519 728 l 663 928 l 909 928 l 644 561 l 519 728 z "},"l":{"ha":648,"x_min":93,"x_max":648,"o":"m 93 0 l 93 928 l 293 928 l 293 0 l 93 0 m 380 0 l 380 195 l 648 195 l 648 0 l 380 0 z "},"m":{"ha":1099,"x_min":93,"x_max":1007,"o":"m 93 0 l 93 563 l 293 402 l 293 0 l 93 0 m 807 0 l 807 545 l 549 338 l 93 707 l 93 962 l 550 593 l 1007 962 l 1007 0 l 807 0 z "},"n":{"ha":1005,"x_min":93,"x_max":913,"o":"m 93 0 l 93 547 l 293 372 l 293 0 l 93 0 m 93 694 l 93 958 l 713 410 l 713 928 l 913 928 l 913 -30 l 93 694 z "},"o":{"ha":1073,"x_min":51,"x_max":1022,"o":"m 51 407 l 253 407 q 306 289 268 338 q 408 204 347 234 q 535 174 468 174 q 712 234 634 174 q 820 407 791 296 l 1022 407 q 905 143 1002 256 q 741 19 837 63 q 536 -26 643 -26 q 263 58 387 -26 q 79 290 135 146 q 51 407 58 342 m 253 519 l 51 519 q 161 774 68 663 q 327 904 231 858 q 536 951 427 951 q 801 874 680 951 q 993 637 933 789 q 1022 519 1013 584 l 820 519 q 766 637 802 590 q 664 722 725 692 q 535 752 603 752 q 408 722 468 752 q 306 637 347 692 q 253 519 268 587 z "},"p":{"ha":816,"x_min":83,"x_max":791,"o":"m 83 0 l 83 928 l 283 928 l 283 0 l 83 0 m 397 367 l 397 562 l 462 562 q 545 573 519 562 q 593 648 593 593 q 559 715 593 693 q 471 732 533 732 l 397 732 l 397 928 l 460 928 q 605 911 555 928 q 745 803 693 881 q 791 648 791 732 q 749 501 791 570 q 622 389 703 423 q 473 367 569 367 l 397 367 z "},"q":{"ha":1027,"x_min":51,"x_max":1000,"o":"m 1000 195 l 1000 0 l 625 0 q 414 18 486 1 q 254 89 328 38 q 130 214 180 140 q 55 410 71 302 l 256 410 q 374 246 289 302 q 526 199 437 207 q 662 195 566 195 l 1000 195 m 968 309 l 745 309 q 801 475 801 391 q 720 672 801 591 q 525 752 640 752 q 309 650 392 752 q 250 517 264 594 l 51 517 q 159 779 66 669 q 321 906 227 861 q 524 951 417 951 q 781 876 663 951 q 954 680 895 804 q 999 478 999 584 q 968 309 999 394 z "},"r":{"ha":848,"x_min":93,"x_max":800,"o":"m 93 0 l 93 928 l 293 928 l 293 0 l 93 0 m 406 367 l 406 562 l 471 562 q 554 573 528 562 q 602 648 602 593 q 568 715 602 694 q 480 732 541 732 l 406 732 l 406 928 l 469 928 q 614 911 564 928 q 753 803 702 881 q 800 648 800 732 q 758 501 800 570 q 631 389 711 423 q 481 367 578 367 l 406 367 m 584 0 l 483 285 q 681 328 602 288 l 795 0 l 584 0 z "},"s":{"ha":709,"x_min":45,"x_max":661,"o":"m 45 279 l 243 279 q 272 205 250 231 q 353 170 303 170 q 433 205 403 170 q 460 279 460 237 q 437 347 460 319 q 384 382 421 366 l 475 559 q 661 283 661 475 q 579 72 661 160 q 353 -26 489 -26 q 168 35 249 -26 q 45 279 54 122 m 618 676 l 411 676 q 338 755 401 755 q 279 726 301 755 q 264 680 264 706 q 306 615 264 635 q 366 598 319 609 l 275 418 q 146 484 191 441 q 64 679 64 559 q 137 866 64 789 q 340 951 217 951 q 505 900 434 951 q 618 676 610 823 z "},"t":{"ha":570,"x_min":-28,"x_max":598,"o":"m 186 0 l 186 621 l 386 621 l 386 0 l 186 0 m -28 734 l -28 928 l 598 928 l 598 734 l -28 734 z "},"u":{"ha":930,"x_min":83,"x_max":847,"o":"m 83 928 l 283 928 l 283 417 q 292 311 283 345 q 409 186 311 222 l 409 -18 q 283 26 343 -7 q 180 107 224 58 q 95 269 117 176 q 83 399 83 317 l 83 928 m 647 928 l 847 928 l 847 399 q 814 203 846 279 q 656 31 767 97 q 519 -18 588 -8 l 519 186 q 618 258 585 208 q 644 339 638 289 q 647 417 647 366 l 647 928 z "},"v":{"ha":786,"x_min":-119,"x_max":882,"o":"m 382 -43 l -119 928 l 104 928 l 494 173 l 382 -43 m 444 511 l 659 928 l 882 928 l 556 296 l 444 511 z "},"w":{"ha":1177,"x_min":-68,"x_max":1240,"o":"m 330 -32 l -68 928 l 148 928 l 445 207 l 330 -32 m 407 586 l 585 958 l 943 215 l 842 -32 l 585 499 l 509 339 l 407 586 m 884 591 l 1025 928 l 1240 928 l 1000 352 l 884 591 z "},"x":{"ha":787,"x_min":-73,"x_max":886,"o":"m -73 0 l 214 389 l 337 222 l 173 0 l -73 0 m 640 0 l -43 928 l 204 928 l 886 0 l 640 0 m 475 745 l 612 928 l 858 928 l 600 578 l 475 745 z "},"y":{"ha":712,"x_min":-92,"x_max":806,"o":"m 228 0 l 228 476 l 559 928 l 806 928 l 428 411 l 428 0 l 228 0 m 157 576 l -92 928 l 153 928 l 281 745 l 157 576 z "},"z":{"ha":825,"x_min":-37,"x_max":836,"o":"m -37 0 l 94 195 l 836 195 l 836 0 l -37 0 m 168 307 l 376 620 l 616 620 l 408 307 l 168 307 m 19 734 l 19 928 l 822 928 l 692 734 l 19 734 z "},"{":{"ha":612,"x_min":56,"x_max":556,"o":"m 56 562 l 94 562 q 237 530 166 562 q 325 474 288 508 q 375 404 361 440 q 390 281 390 363 l 390 152 q 523 67 394 65 l 556 67 l 556 -128 l 531 -128 q 388 -114 436 -127 q 237 -1 292 -87 q 192 152 192 70 l 192 281 q 159 347 192 323 q 94 367 131 367 l 56 367 l 56 562 m 189 626 q 192 648 192 638 l 192 777 q 237 929 192 859 q 388 1043 292 1016 q 531 1057 436 1057 l 556 1057 l 556 861 l 523 861 q 390 777 394 863 l 390 648 q 379 538 389 580 q 189 626 294 614 z "},"|":{"ha":694,"x_min":241,"x_max":454,"o":"m 241 926 l 454 926 l 454 -231 l 241 -231 l 241 926 z "},"}":{"ha":612,"x_min":56,"x_max":556,"o":"m 556 367 l 518 367 q 375 399 447 367 q 288 455 324 421 q 237 526 251 489 q 222 648 222 567 l 222 777 q 89 861 219 863 l 56 861 l 56 1057 l 81 1057 q 224 1043 176 1057 q 376 929 321 1016 q 420 777 420 859 l 420 648 q 454 582 420 606 q 518 562 481 562 l 556 562 l 556 367 m 423 302 q 420 281 420 290 l 420 152 q 376 -1 420 70 q 224 -114 321 -87 q 81 -128 176 -127 l 56 -128 l 56 67 l 89 67 q 222 152 218 65 l 222 281 q 233 390 223 349 q 423 302 319 315 z "},"~":{"ha":926,"x_min":129,"x_max":800,"o":"m 232 765 l 129 851 q 189 961 156 918 q 335 1042 248 1042 q 439 1017 375 1042 q 532 978 466 1006 q 600 961 571 961 q 665 996 637 961 q 697 1046 680 1014 l 800 960 q 736 844 767 882 q 593 768 677 768 q 507 789 561 768 q 406 829 473 802 q 328 850 357 850 q 266 817 292 850 q 232 765 252 799 z "},"Ä":{"ha":877,"x_min":-70,"x_max":930,"o":"m -70 0 l 256 634 l 368 416 l 153 0 l -70 0 m 706 0 l 625 155 l 348 155 l 448 350 l 526 350 l 317 754 l 429 971 l 930 0 l 706 0 m 234 1019 l 234 1185 l 399 1185 l 399 1019 l 234 1019 m 478 1019 l 478 1185 l 644 1185 l 644 1019 l 478 1019 z "},"Å":{"ha":877,"x_min":-70,"x_max":930,"o":"m -70 0 l 256 634 l 368 416 l 153 0 l -70 0 m 706 0 l 625 155 l 348 155 l 448 350 l 526 350 l 317 754 l 429 971 l 930 0 l 706 0 m 440 1255 q 535 1215 495 1255 q 575 1118 575 1175 q 535 1021 575 1061 q 439 981 495 981 q 342 1021 382 981 q 302 1118 302 1061 q 342 1215 302 1175 q 440 1255 383 1255 m 438 1153 q 414 1143 424 1153 q 404 1118 404 1133 q 414 1093 404 1103 q 439 1083 424 1083 q 463 1093 453 1083 q 473 1118 473 1103 q 463 1143 473 1133 q 438 1153 453 1153 z "},"Ç":{"ha":980,"x_min":51,"x_max":933,"o":"m 487 176 l 487 -26 q 241 75 345 -5 q 100 249 150 146 q 51 462 51 349 q 152 760 51 629 q 487 951 274 920 l 487 749 q 349 681 403 729 q 277 582 303 640 q 251 462 251 524 q 278 339 251 398 q 355 239 306 280 q 487 176 407 196 m 598 -26 l 598 176 q 775 287 707 198 l 933 165 q 598 -26 802 -2 m 598 749 l 598 951 q 781 894 697 939 q 931 762 871 844 l 774 638 q 598 749 705 729 m 487 -74 q 601 -95 555 -75 q 696 -237 696 -136 q 644 -358 696 -311 q 515 -404 594 -404 q 374 -350 434 -404 l 465 -273 q 507 -281 490 -281 q 546 -268 530 -281 q 564 -227 564 -252 q 487 -172 564 -176 l 487 -74 z "},"É":{"ha":852,"x_min":93,"x_max":772,"o":"m 93 0 l 93 928 l 293 928 l 293 0 l 93 0 m 406 0 l 406 195 l 772 195 l 772 0 l 406 0 m 406 366 l 406 561 l 772 561 l 772 366 l 406 366 m 406 734 l 406 928 l 772 928 l 772 734 l 406 734 m 328 1000 l 465 1221 l 637 1221 l 500 1000 l 328 1000 z "},"Ñ":{"ha":1005,"x_min":93,"x_max":913,"o":"m 93 0 l 93 547 l 293 372 l 293 0 l 93 0 m 93 694 l 93 958 l 713 410 l 713 928 l 913 928 l 913 -30 l 93 694 m 446 1014 l 313 1014 q 328 1118 315 1086 q 424 1190 354 1190 q 507 1166 452 1190 q 543 1156 534 1156 q 564 1185 561 1156 l 692 1185 q 688 1116 692 1141 q 666 1055 684 1082 q 624 1017 648 1028 q 574 1008 604 1008 q 500 1028 552 1008 q 465 1038 475 1038 q 446 1014 450 1038 z "},"Ö":{"ha":1073,"x_min":51,"x_max":1022,"o":"m 51 407 l 253 407 q 306 289 268 338 q 408 204 347 234 q 535 174 468 174 q 712 234 634 174 q 820 407 791 296 l 1022 407 q 905 143 1002 256 q 741 19 837 63 q 536 -26 643 -26 q 263 58 387 -26 q 79 290 135 146 q 51 407 58 342 m 253 519 l 51 519 q 161 774 68 663 q 327 904 231 858 q 536 951 427 951 q 801 874 680 951 q 993 637 933 789 q 1022 519 1013 584 l 820 519 q 766 637 802 590 q 664 722 725 692 q 535 752 603 752 q 408 722 468 752 q 306 637 347 692 q 253 519 268 587 m 332 1019 l 332 1185 l 497 1185 l 497 1019 l 332 1019 m 576 1019 l 576 1185 l 741 1185 l 741 1019 l 576 1019 z "},"Ü":{"ha":930,"x_min":83,"x_max":847,"o":"m 83 928 l 283 928 l 283 417 q 292 311 283 345 q 409 186 311 222 l 409 -18 q 283 26 343 -7 q 180 107 224 58 q 95 269 117 176 q 83 399 83 317 l 83 928 m 647 928 l 847 928 l 847 399 q 814 203 846 279 q 656 31 767 97 q 519 -18 588 -8 l 519 186 q 618 258 585 208 q 644 339 638 289 q 647 417 647 366 l 647 928 m 260 1019 l 260 1185 l 426 1185 l 426 1019 l 260 1019 m 505 1019 l 505 1185 l 670 1185 l 670 1019 l 505 1019 z "},"á":{"ha":877,"x_min":-70,"x_max":930,"o":"m -70 0 l 256 634 l 368 416 l 153 0 l -70 0 m 706 0 l 625 155 l 348 155 l 448 350 l 526 350 l 317 754 l 429 971 l 930 0 l 706 0 m 340 1000 l 477 1221 l 648 1221 l 512 1000 l 340 1000 z "},"à":{"ha":877,"x_min":-70,"x_max":930,"o":"m -70 0 l 256 634 l 368 416 l 153 0 l -70 0 m 706 0 l 625 155 l 348 155 l 448 350 l 526 350 l 317 754 l 429 971 l 930 0 l 706 0 m 537 1000 l 365 1000 l 229 1221 l 400 1221 l 537 1000 z "},"â":{"ha":877,"x_min":-70,"x_max":930,"o":"m -70 0 l 256 634 l 368 416 l 153 0 l -70 0 m 706 0 l 625 155 l 348 155 l 448 350 l 526 350 l 317 754 l 429 971 l 930 0 l 706 0 m 195 1000 l 358 1217 l 518 1217 l 682 1000 l 500 1000 l 438 1082 l 376 1000 l 195 1000 z "},"ä":{"ha":877,"x_min":-70,"x_max":930,"o":"m -70 0 l 256 634 l 368 416 l 153 0 l -70 0 m 706 0 l 625 155 l 348 155 l 448 350 l 526 350 l 317 754 l 429 971 l 930 0 l 706 0 m 234 1019 l 234 1185 l 399 1185 l 399 1019 l 234 1019 m 478 1019 l 478 1185 l 644 1185 l 644 1019 l 478 1019 z "},"ã":{"ha":877,"x_min":-70,"x_max":930,"o":"m -70 0 l 256 634 l 368 416 l 153 0 l -70 0 m 706 0 l 625 155 l 348 155 l 448 350 l 526 350 l 317 754 l 429 971 l 930 0 l 706 0 m 382 1014 l 249 1014 q 263 1118 251 1086 q 359 1190 290 1190 q 443 1166 388 1190 q 478 1156 469 1156 q 500 1185 496 1156 l 628 1185 q 624 1116 627 1141 q 602 1055 619 1082 q 559 1017 584 1028 q 510 1008 540 1008 q 435 1028 488 1008 q 401 1038 410 1038 q 382 1014 385 1038 z "},"å":{"ha":877,"x_min":-70,"x_max":930,"o":"m -70 0 l 256 634 l 368 416 l 153 0 l -70 0 m 706 0 l 625 155 l 348 155 l 448 350 l 526 350 l 317 754 l 429 971 l 930 0 l 706 0 m 440 1255 q 535 1215 495 1255 q 575 1118 575 1175 q 535 1021 575 1061 q 439 981 495 981 q 342 1021 382 981 q 302 1118 302 1061 q 342 1215 302 1175 q 440 1255 383 1255 m 438 1153 q 414 1143 424 1153 q 404 1118 404 1133 q 414 1093 404 1103 q 439 1083 424 1083 q 463 1093 453 1083 q 473 1118 473 1103 q 463 1143 473 1133 q 438 1153 453 1153 z "},"ç":{"ha":980,"x_min":51,"x_max":933,"o":"m 487 176 l 487 -26 q 241 75 345 -5 q 100 249 150 146 q 51 462 51 349 q 152 760 51 629 q 487 951 274 920 l 487 749 q 349 681 403 729 q 277 582 303 640 q 251 462 251 524 q 278 339 251 398 q 355 239 306 280 q 487 176 407 196 m 598 -26 l 598 176 q 775 287 707 198 l 933 165 q 598 -26 802 -2 m 598 749 l 598 951 q 781 894 697 939 q 931 762 871 844 l 774 638 q 598 749 705 729 m 487 -74 q 601 -95 555 -75 q 696 -237 696 -136 q 644 -358 696 -311 q 515 -404 594 -404 q 374 -350 434 -404 l 465 -273 q 507 -281 490 -281 q 546 -268 530 -281 q 564 -227 564 -252 q 487 -172 564 -176 l 487 -74 z "},"é":{"ha":852,"x_min":93,"x_max":772,"o":"m 93 0 l 93 928 l 293 928 l 293 0 l 93 0 m 406 0 l 406 195 l 772 195 l 772 0 l 406 0 m 406 366 l 406 561 l 772 561 l 772 366 l 406 366 m 406 734 l 406 928 l 772 928 l 772 734 l 406 734 m 328 1000 l 465 1221 l 637 1221 l 500 1000 l 328 1000 z "},"è":{"ha":852,"x_min":93,"x_max":772,"o":"m 93 0 l 93 928 l 293 928 l 293 0 l 93 0 m 406 0 l 406 195 l 772 195 l 772 0 l 406 0 m 406 366 l 406 561 l 772 561 l 772 366 l 406 366 m 406 734 l 406 928 l 772 928 l 772 734 l 406 734 m 526 1000 l 353 1000 l 217 1221 l 389 1221 l 526 1000 z "},"ê":{"ha":852,"x_min":93,"x_max":772,"o":"m 93 0 l 93 928 l 293 928 l 293 0 l 93 0 m 406 0 l 406 195 l 772 195 l 772 0 l 406 0 m 406 366 l 406 561 l 772 561 l 772 366 l 406 366 m 406 734 l 406 928 l 772 928 l 772 734 l 406 734 m 184 1000 l 347 1217 l 507 1217 l 670 1000 l 488 1000 l 427 1082 l 365 1000 l 184 1000 z "},"ë":{"ha":852,"x_min":93,"x_max":772,"o":"m 93 0 l 93 928 l 293 928 l 293 0 l 93 0 m 406 0 l 406 195 l 772 195 l 772 0 l 406 0 m 406 366 l 406 561 l 772 561 l 772 366 l 406 366 m 406 734 l 406 928 l 772 928 l 772 734 l 406 734 m 222 1019 l 222 1185 l 387 1185 l 387 1019 l 222 1019 m 466 1019 l 466 1185 l 631 1185 l 631 1019 l 466 1019 z "},"í":{"ha":385,"x_min":93,"x_max":403,"o":"m 93 0 l 93 928 l 293 928 l 293 0 l 93 0 m 94 1000 l 231 1221 l 403 1221 l 267 1000 l 94 1000 z "},"ì":{"ha":385,"x_min":-17,"x_max":293,"o":"m 93 0 l 93 928 l 293 928 l 293 0 l 93 0 m 292 1000 l 119 1000 l -17 1221 l 155 1221 l 292 1000 z "},"î":{"ha":385,"x_min":-50,"x_max":436,"o":"m 93 0 l 93 928 l 293 928 l 293 0 l 93 0 m -50 1000 l 113 1217 l 273 1217 l 436 1000 l 254 1000 l 193 1082 l 131 1000 l -50 1000 z "},"ï":{"ha":385,"x_min":6,"x_max":379,"o":"m 92 0 l 92 928 l 292 928 l 292 0 l 92 0 m 6 1028 l 6 1185 l 162 1185 l 162 1028 l 6 1028 m 223 1028 l 223 1185 l 379 1185 l 379 1028 l 223 1028 z "},"ñ":{"ha":1005,"x_min":93,"x_max":913,"o":"m 93 0 l 93 547 l 293 372 l 293 0 l 93 0 m 93 694 l 93 958 l 713 410 l 713 928 l 913 928 l 913 -30 l 93 694 m 446 1014 l 313 1014 q 328 1118 315 1086 q 424 1190 354 1190 q 507 1166 452 1190 q 543 1156 534 1156 q 564 1185 561 1156 l 692 1185 q 688 1116 692 1141 q 666 1055 684 1082 q 624 1017 648 1028 q 574 1008 604 1008 q 500 1028 552 1008 q 465 1038 475 1038 q 446 1014 450 1038 z "},"ó":{"ha":1073,"x_min":51,"x_max":1022,"o":"m 51 407 l 253 407 q 306 289 268 338 q 408 204 347 234 q 535 174 468 174 q 712 234 634 174 q 820 407 791 296 l 1022 407 q 905 143 1002 256 q 741 19 837 63 q 536 -26 643 -26 q 263 58 387 -26 q 79 290 135 146 q 51 407 58 342 m 253 519 l 51 519 q 161 774 68 663 q 327 904 231 858 q 536 951 427 951 q 801 874 680 951 q 993 637 933 789 q 1022 519 1013 584 l 820 519 q 766 637 802 590 q 664 722 725 692 q 535 752 603 752 q 408 722 468 752 q 306 637 347 692 q 253 519 268 587 m 437 1000 l 574 1221 l 746 1221 l 610 1000 l 437 1000 z "},"ò":{"ha":1073,"x_min":51,"x_max":1022,"o":"m 51 407 l 253 407 q 306 289 268 338 q 408 204 347 234 q 535 174 468 174 q 712 234 634 174 q 820 407 791 296 l 1022 407 q 905 143 1002 256 q 741 19 837 63 q 536 -26 643 -26 q 263 58 387 -26 q 79 290 135 146 q 51 407 58 342 m 253 519 l 51 519 q 161 774 68 663 q 327 904 231 858 q 536 951 427 951 q 801 874 680 951 q 993 637 933 789 q 1022 519 1013 584 l 820 519 q 766 637 802 590 q 664 722 725 692 q 535 752 603 752 q 408 722 468 752 q 306 637 347 692 q 253 519 268 587 m 635 1000 l 463 1000 l 327 1221 l 498 1221 l 635 1000 z "},"ô":{"ha":1073,"x_min":51,"x_max":1022,"o":"m 51 407 l 253 407 q 306 289 268 338 q 408 204 347 234 q 535 174 468 174 q 712 234 634 174 q 820 407 791 296 l 1022 407 q 905 143 1002 256 q 741 19 837 63 q 536 -26 643 -26 q 263 58 387 -26 q 79 290 135 146 q 51 407 58 342 m 253 519 l 51 519 q 161 774 68 663 q 327 904 231 858 q 536 951 427 951 q 801 874 680 951 q 993 637 933 789 q 1022 519 1013 584 l 820 519 q 766 637 802 590 q 664 722 725 692 q 535 752 603 752 q 408 722 468 752 q 306 637 347 692 q 253 519 268 587 m 294 1000 l 456 1217 l 616 1217 l 780 1000 l 598 1000 l 536 1082 l 475 1000 l 294 1000 z "},"ö":{"ha":1073,"x_min":51,"x_max":1022,"o":"m 51 407 l 253 407 q 306 289 268 338 q 408 204 347 234 q 535 174 468 174 q 712 234 634 174 q 820 407 791 296 l 1022 407 q 905 143 1002 256 q 741 19 837 63 q 536 -26 643 -26 q 263 58 387 -26 q 79 290 135 146 q 51 407 58 342 m 253 519 l 51 519 q 161 774 68 663 q 327 904 231 858 q 536 951 427 951 q 801 874 680 951 q 993 637 933 789 q 1022 519 1013 584 l 820 519 q 766 637 802 590 q 664 722 725 692 q 535 752 603 752 q 408 722 468 752 q 306 637 347 692 q 253 519 268 587 m 332 1019 l 332 1185 l 497 1185 l 497 1019 l 332 1019 m 576 1019 l 576 1185 l 741 1185 l 741 1019 l 576 1019 z "},"õ":{"ha":1073,"x_min":51,"x_max":1022,"o":"m 51 407 l 253 407 q 306 289 268 338 q 408 204 347 234 q 535 174 468 174 q 712 234 634 174 q 820 407 791 296 l 1022 407 q 905 143 1002 256 q 741 19 837 63 q 536 -26 643 -26 q 263 58 387 -26 q 79 290 135 146 q 51 407 58 342 m 253 519 l 51 519 q 161 774 68 663 q 327 904 231 858 q 536 951 427 951 q 801 874 680 951 q 993 637 933 789 q 1022 519 1013 584 l 820 519 q 766 637 802 590 q 664 722 725 692 q 535 752 603 752 q 408 722 468 752 q 306 637 347 692 q 253 519 268 587 m 479 1014 l 347 1014 q 361 1118 349 1086 q 457 1190 387 1190 q 541 1166 486 1190 q 576 1156 567 1156 q 597 1185 594 1156 l 726 1185 q 722 1116 725 1141 q 699 1055 717 1082 q 657 1017 682 1028 q 608 1008 637 1008 q 533 1028 585 1008 q 498 1038 508 1038 q 479 1014 483 1038 z "},"ú":{"ha":930,"x_min":83,"x_max":847,"o":"m 83 928 l 283 928 l 283 417 q 292 311 283 345 q 409 186 311 222 l 409 -18 q 283 26 343 -7 q 180 107 224 58 q 95 269 117 176 q 83 399 83 317 l 83 928 m 647 928 l 847 928 l 847 399 q 814 203 846 279 q 656 31 767 97 q 519 -18 588 -8 l 519 186 q 618 258 585 208 q 644 339 638 289 q 647 417 647 366 l 647 928 m 366 1000 l 503 1221 l 675 1221 l 538 1000 l 366 1000 z "},"ù":{"ha":930,"x_min":83,"x_max":847,"o":"m 83 928 l 283 928 l 283 417 q 292 311 283 345 q 409 186 311 222 l 409 -18 q 283 26 343 -7 q 180 107 224 58 q 95 269 117 176 q 83 399 83 317 l 83 928 m 647 928 l 847 928 l 847 399 q 814 203 846 279 q 656 31 767 97 q 519 -18 588 -8 l 519 186 q 618 258 585 208 q 644 339 638 289 q 647 417 647 366 l 647 928 m 564 1000 l 392 1000 l 256 1221 l 427 1221 l 564 1000 z "},"û":{"ha":930,"x_min":83,"x_max":847,"o":"m 83 928 l 283 928 l 283 417 q 292 311 283 345 q 409 186 311 222 l 409 -18 q 283 26 343 -7 q 180 107 224 58 q 95 269 117 176 q 83 399 83 317 l 83 928 m 647 928 l 847 928 l 847 399 q 814 203 846 279 q 656 31 767 97 q 519 -18 588 -8 l 519 186 q 618 258 585 208 q 644 339 638 289 q 647 417 647 366 l 647 928 m 222 1000 l 385 1217 l 545 1217 l 709 1000 l 527 1000 l 465 1082 l 404 1000 l 222 1000 z "},"ü":{"ha":930,"x_min":83,"x_max":847,"o":"m 83 928 l 283 928 l 283 417 q 292 311 283 345 q 409 186 311 222 l 409 -18 q 283 26 343 -7 q 180 107 224 58 q 95 269 117 176 q 83 399 83 317 l 83 928 m 647 928 l 847 928 l 847 399 q 814 203 846 279 q 656 31 767 97 q 519 -18 588 -8 l 519 186 q 618 258 585 208 q 644 339 638 289 q 647 417 647 366 l 647 928 m 260 1019 l 260 1185 l 426 1185 l 426 1019 l 260 1019 m 505 1019 l 505 1185 l 670 1185 l 670 1019 l 505 1019 z "},"†":{"ha":689,"x_min":37,"x_max":652,"o":"m 245 481 l 37 481 l 37 679 l 245 679 l 245 928 l 445 928 l 445 679 l 652 679 l 652 481 l 445 481 l 445 -148 l 245 -148 l 245 481 z "},"°":{"ha":678,"x_min":46,"x_max":632,"o":"m 368 368 l 368 526 q 423 551 401 534 q 475 659 475 592 q 424 766 475 726 q 368 792 401 784 l 368 951 q 531 880 463 939 q 605 782 578 840 q 632 659 632 723 q 582 496 632 570 q 368 368 506 384 m 311 526 l 311 368 q 152 434 219 378 q 75 534 102 476 q 46 659 46 593 q 93 818 46 745 q 311 951 166 932 l 311 792 q 254 766 276 783 q 203 659 203 726 q 255 551 203 593 q 311 526 278 534 z "},"¢":{"ha":779,"x_min":51,"x_max":733,"o":"m 504 66 l 504 -88 l 308 -88 l 308 73 q 118 210 192 110 q 51 373 63 286 l 255 373 q 281 324 265 345 q 418 255 333 255 q 572 347 511 255 l 733 226 q 504 66 638 99 m 308 782 l 308 928 l 504 928 l 504 789 q 731 629 647 755 l 575 507 q 418 600 511 600 q 281 532 333 600 q 255 482 265 511 l 51 482 q 133 665 64 581 q 308 782 204 749 z "},"£":{"ha":772,"x_min":77,"x_max":747,"o":"m 77 0 l 77 572 q 94 728 77 674 q 223 897 127 832 q 408 950 303 950 q 596 899 513 950 q 747 644 733 813 l 546 644 q 413 760 523 760 q 296 698 331 760 q 275 576 275 662 l 275 0 l 77 0 m 389 0 l 389 195 l 745 195 l 745 0 l 389 0 m 389 367 l 389 562 l 642 562 l 642 367 l 389 367 z "},"§":{"ha":635,"x_min":51,"x_max":585,"o":"m 292 469 l 125 564 q 69 717 69 629 q 132 878 69 811 q 306 951 200 951 q 447 907 386 951 q 545 710 538 841 l 361 710 q 304 777 354 777 q 258 754 275 777 q 247 717 247 738 q 279 667 247 683 q 340 652 296 660 q 458 615 417 640 q 556 508 522 575 q 585 387 585 452 q 556 266 585 326 l 404 353 q 410 386 410 372 q 384 448 410 422 q 321 474 358 474 q 292 469 309 474 m 73 495 l 235 404 q 233 384 233 391 q 276 311 233 336 q 326 298 296 298 l 500 199 q 544 61 544 136 q 481 -100 544 -33 q 308 -173 413 -173 q 166 -129 227 -173 q 69 68 76 -63 l 252 68 q 309 2 260 2 q 355 24 338 2 q 366 62 366 41 q 347 103 366 88 q 290 122 331 115 q 130 199 191 138 q 51 387 51 277 q 73 495 51 439 z "},"•":{"ha":926,"x_min":272,"x_max":657,"o":"m 467 663 q 600 607 544 663 q 657 471 657 551 q 600 334 657 391 q 465 278 545 278 q 329 334 385 278 q 272 470 272 391 q 329 607 272 552 q 467 663 387 663 z "},"¶":{"ha":833,"x_min":-14,"x_max":746,"o":"m 337 768 l 248 768 l 248 420 q 139 435 176 421 q 24 533 66 463 q -14 673 -14 597 q 20 807 -14 745 q 125 908 58 878 q 248 928 169 928 l 497 928 l 497 -148 l 337 -148 l 337 768 m 586 -148 l 586 928 l 746 928 l 746 -148 l 586 -148 z "},"ß":{"ha":1418,"x_min":45,"x_max":1369,"o":"m 45 279 l 243 279 q 272 205 250 231 q 353 170 303 170 q 433 205 403 170 q 460 279 460 237 q 437 347 460 319 q 384 382 421 366 l 475 559 q 661 283 661 475 q 579 72 661 160 q 353 -26 489 -26 q 168 35 249 -26 q 45 279 54 122 m 618 676 l 411 676 q 338 755 401 755 q 279 726 301 755 q 264 680 264 706 q 306 615 264 635 q 366 598 319 609 l 275 418 q 146 484 191 441 q 64 679 64 559 q 137 866 64 789 q 340 951 217 951 q 505 900 434 951 q 618 676 610 823 m 754 279 l 952 279 q 981 205 958 231 q 1062 170 1012 170 q 1142 205 1112 170 q 1169 279 1169 237 q 1093 382 1169 348 l 1183 559 q 1369 283 1369 475 q 1288 72 1369 160 q 1061 -26 1198 -26 q 877 35 958 -26 q 754 279 763 122 m 1326 676 l 1120 676 q 1048 755 1110 755 q 989 726 1010 755 q 974 680 974 706 q 1015 615 974 635 q 1074 598 1028 609 l 983 418 q 855 484 901 441 q 774 679 774 559 q 846 866 774 789 q 1049 951 926 951 q 1214 900 1143 951 q 1326 676 1319 823 z "},"®":{"ha":1040,"x_min":46,"x_max":994,"o":"m 320 185 l 320 743 l 448 743 l 448 185 l 320 185 m 505 401 l 505 526 l 548 526 q 595 532 581 526 q 621 572 621 543 q 553 618 621 618 l 505 618 l 505 743 l 547 743 q 634 732 603 743 q 719 667 688 714 q 747 572 747 624 q 684 439 747 491 q 554 401 639 401 l 505 401 m 597 185 l 535 359 l 600 359 q 664 378 650 363 l 732 185 l 597 185 m 994 517 l 867 517 q 785 705 848 631 q 520 827 679 827 q 328 769 414 827 q 173 517 201 684 l 46 517 q 153 780 62 669 q 316 906 220 861 q 520 951 413 951 q 783 873 664 951 q 968 637 914 787 q 994 517 987 585 m 46 409 l 173 409 q 255 222 192 295 q 520 99 361 99 q 712 157 626 99 q 867 409 840 243 l 994 409 q 886 146 978 257 q 724 20 820 64 q 520 -26 627 -26 q 257 53 376 -26 q 72 290 126 139 q 46 409 54 341 z "},"©":{"ha":1040,"x_min":46,"x_max":994,"o":"m 492 297 l 492 170 q 340 231 404 182 q 256 333 286 273 q 226 463 226 394 q 257 595 226 532 q 345 699 289 657 q 492 757 406 744 l 492 628 q 410 589 441 616 q 353 463 353 538 q 413 335 353 385 q 492 297 444 309 m 549 170 l 549 298 q 656 366 615 310 l 758 288 q 549 170 676 183 m 549 628 l 549 757 q 756 639 682 742 l 656 560 q 549 628 614 616 m 994 517 l 867 517 q 785 705 848 631 q 520 827 679 827 q 328 769 414 827 q 173 517 201 684 l 46 517 q 153 780 62 669 q 316 906 220 861 q 520 951 413 951 q 783 873 664 951 q 968 637 914 787 q 994 517 987 585 m 46 409 l 173 409 q 255 222 192 295 q 520 99 361 99 q 712 157 626 99 q 867 409 840 243 l 994 409 q 886 146 978 257 q 724 20 820 64 q 520 -26 627 -26 q 257 53 376 -26 q 72 290 126 139 q 46 409 54 341 z "},"™":{"ha":1122,"x_min":18,"x_max":1076,"o":"m 146 332 l 146 682 l 307 682 l 307 332 l 146 332 m 18 771 l 18 926 l 434 926 l 434 771 l 18 771 m 475 332 l 475 650 l 637 519 l 637 332 l 475 332 m 914 332 l 914 632 l 775 522 l 475 758 l 475 954 l 776 718 l 1076 954 l 1076 332 l 914 332 z "},"´":{"ha":694,"x_min":248,"x_max":557,"o":"m 248 1000 l 385 1221 l 557 1221 l 420 1000 l 248 1000 z "},"¨":{"ha":694,"x_min":142,"x_max":552,"o":"m 142 1019 l 142 1185 l 308 1185 l 308 1019 l 142 1019 m 387 1019 l 387 1185 l 552 1185 l 552 1019 l 387 1019 z "},"≠":{"ha":833,"x_min":65,"x_max":769,"o":"m 409 713 l 484 909 l 666 840 l 618 713 l 769 713 l 769 518 l 543 518 l 500 408 l 769 408 l 769 212 l 425 212 l 350 16 l 168 86 l 216 212 l 65 212 l 65 408 l 292 408 l 334 518 l 65 518 l 65 713 l 409 713 z "},"Æ":{"ha":1263,"x_min":-129,"x_max":1182,"o":"m -129 0 l 397 774 l 397 421 l 349 349 l 502 349 l 502 928 l 702 928 l 702 0 l 502 0 l 502 154 l 216 154 l 112 0 l -129 0 m 814 0 l 814 195 l 1182 195 l 1182 0 l 814 0 m 814 366 l 814 561 l 1182 561 l 1182 366 l 814 366 m 814 734 l 814 928 l 1182 928 l 1182 734 l 814 734 z "},"Ø":{"ha":1073,"x_min":45,"x_max":1028,"o":"m 127 195 q 50 407 62 296 l 252 407 q 304 289 267 338 q 406 204 346 234 q 534 174 467 174 q 711 234 633 174 q 819 407 791 296 l 1021 407 q 904 143 1000 256 q 739 19 836 63 q 536 -26 642 -26 q 265 57 390 -26 l 181 -28 l 45 111 l 127 195 m 802 871 l 888 958 l 1028 821 l 941 734 q 1021 519 1007 635 l 819 519 q 764 637 800 590 q 663 722 724 692 q 534 752 602 752 q 406 722 467 752 q 304 637 346 692 q 252 519 267 587 l 50 519 q 160 774 67 663 q 326 904 229 857 q 534 951 425 951 q 802 871 678 951 z "},"∞":{"ha":926,"x_min":24,"x_max":901,"o":"m 467 380 q 407 317 435 342 q 242 252 334 252 q 81 319 144 252 q 24 473 24 379 q 86 630 24 570 q 241 691 149 691 q 460 564 362 691 q 684 691 558 691 q 850 618 788 691 q 901 472 901 560 q 842 315 901 375 q 685 252 779 252 q 525 317 597 252 q 467 380 497 341 m 532 472 q 665 376 596 376 q 730 403 703 376 q 758 471 758 430 q 728 543 758 515 q 664 566 701 566 q 563 513 610 566 q 544 489 556 505 q 532 472 532 473 m 394 471 q 260 567 330 567 q 195 541 220 567 q 168 472 168 514 q 197 401 168 427 q 262 377 224 377 q 363 431 317 377 q 382 454 370 438 q 394 471 395 471 z "},"±":{"ha":833,"x_min":65,"x_max":769,"o":"m 319 708 l 319 928 l 515 928 l 515 708 l 769 708 l 769 513 l 515 513 l 515 292 l 319 292 l 319 513 l 65 513 l 65 708 l 319 708 m 65 0 l 65 195 l 769 195 l 769 0 l 65 0 z "},"≤":{"ha":694,"x_min":46,"x_max":648,"o":"m 648 897 l 648 699 l 277 581 l 648 463 l 648 265 l 46 493 l 46 671 l 648 897 m 648 228 l 648 42 l 46 42 l 46 228 l 648 228 z "},"≥":{"ha":694,"x_min":46,"x_max":648,"o":"m 46 897 l 648 671 l 648 492 l 46 265 l 46 463 l 416 581 l 46 699 l 46 897 m 46 228 l 648 228 l 648 42 l 46 42 l 46 228 z "},"¥":{"ha":842,"x_min":1,"x_max":842,"o":"m 214 566 l 50 566 l 50 738 l 113 738 l 1 928 l 239 928 l 366 708 l 250 507 l 214 566 m 729 738 l 793 738 l 793 566 l 628 566 l 536 412 l 736 412 l 736 240 l 522 240 l 522 0 l 321 0 l 321 240 l 107 240 l 107 412 l 307 412 l 604 928 l 842 928 l 729 738 z "},"µ":{"ha":795,"x_min":83,"x_max":713,"o":"m 83 743 l 261 743 l 261 334 q 289 208 261 243 q 353 164 311 180 l 353 -14 q 235 53 290 0 l 261 -185 l 83 -185 l 83 743 m 533 743 l 713 743 l 713 0 l 553 0 l 553 45 q 442 -14 499 -1 l 442 165 q 511 216 487 180 q 533 335 533 250 l 533 743 z "},"∂":{"ha":694,"x_min":23,"x_max":671,"o":"m 85 765 l 109 920 q 341 868 241 905 q 503 770 431 834 q 616 624 576 705 q 671 361 671 511 q 584 89 671 187 q 338 -16 491 -16 q 101 90 189 -16 q 44 191 64 133 q 23 307 23 248 q 50 433 23 373 q 125 533 77 493 q 315 598 204 598 q 420 574 380 598 q 461 545 425 570 q 477 535 467 542 q 469 551 471 547 q 420 631 437 612 q 250 730 361 690 q 85 765 180 754 m 348 450 q 256 414 296 450 q 205 296 205 368 q 250 185 205 231 q 349 144 291 144 q 440 181 401 144 q 488 299 488 227 q 445 411 488 368 q 348 450 406 450 z "},"∑":{"ha":926,"x_min":47,"x_max":876,"o":"m 863 1042 l 863 687 l 682 687 l 661 857 l 272 857 l 608 369 l 274 -163 l 673 -163 l 685 14 l 876 14 l 876 -347 l 47 -347 l 47 -135 l 370 368 l 47 829 l 47 1042 l 863 1042 z "},"∏":{"ha":926,"x_min":26,"x_max":900,"o":"m 26 1042 l 900 1042 l 900 880 l 800 880 l 800 -186 l 900 -186 l 900 -347 l 530 -347 l 530 -186 l 620 -186 l 620 880 l 306 880 l 306 -186 l 395 -186 l 395 -347 l 26 -347 l 26 -186 l 127 -186 l 127 880 l 26 880 l 26 1042 z "},"π":{"ha":863,"x_min":28,"x_max":836,"o":"m 129 0 l 129 517 l 28 517 l 28 666 l 836 666 l 836 517 l 735 517 l 735 0 l 547 0 l 547 517 l 317 517 l 317 0 l 129 0 z "},"∫":{"ha":694,"x_min":64,"x_max":631,"o":"m 64 -333 l 98 -143 q 156 -157 132 -157 q 212 -138 190 -157 q 238 -73 236 -117 q 239 41 239 -45 l 239 617 q 241 764 239 699 q 266 905 243 856 q 513 1042 330 1042 q 631 1027 555 1042 l 597 838 q 536 851 562 851 q 467 814 487 851 q 455 720 455 792 l 455 21 q 441 -174 455 -120 q 352 -298 422 -248 q 153 -346 283 -346 q 79 -336 116 -346 q 64 -333 71 -334 z "},"ª":{"ha":534,"x_min":37,"x_max":478,"o":"m 478 507 l 286 507 q 177 519 215 507 q 72 601 111 542 q 37 717 37 654 q 115 882 37 818 q 192 921 150 911 q 273 928 219 928 l 273 782 q 185 717 185 779 q 212 666 185 683 q 277 654 231 654 l 330 654 l 330 928 l 478 928 l 478 507 z "},"º":{"ha":515,"x_min":37,"x_max":478,"o":"m 330 682 l 478 682 q 428 568 471 618 q 258 495 366 495 q 78 580 141 495 q 37 682 44 627 l 186 682 q 258 639 201 639 q 330 682 315 639 m 478 753 l 330 753 q 258 802 315 802 q 186 753 201 802 l 37 753 q 87 867 45 817 q 258 940 150 940 q 437 855 374 940 q 478 753 472 808 z "},"Ω":{"ha":926,"x_min":34,"x_max":892,"o":"m 39 0 l 39 174 l 232 174 q 107 281 156 220 q 34 511 34 372 q 163 827 34 697 q 462 949 285 949 q 766 825 643 949 q 892 511 892 699 q 809 268 892 365 q 694 174 766 218 l 888 174 l 888 0 l 513 0 l 513 161 q 627 260 587 200 q 688 475 688 355 q 625 686 688 600 q 465 772 562 772 q 300 686 365 772 q 238 475 238 603 q 413 161 238 252 l 413 0 l 39 0 z "},"æ":{"ha":1263,"x_min":-129,"x_max":1182,"o":"m -129 0 l 397 774 l 397 421 l 349 349 l 502 349 l 502 928 l 702 928 l 702 0 l 502 0 l 502 154 l 216 154 l 112 0 l -129 0 m 814 0 l 814 195 l 1182 195 l 1182 0 l 814 0 m 814 366 l 814 561 l 1182 561 l 1182 366 l 814 366 m 814 734 l 814 928 l 1182 928 l 1182 734 l 814 734 z "},"ø":{"ha":1073,"x_min":45,"x_max":1028,"o":"m 127 195 q 50 407 62 296 l 252 407 q 304 289 267 338 q 406 204 346 234 q 534 174 467 174 q 711 234 633 174 q 819 407 791 296 l 1021 407 q 904 143 1000 256 q 739 19 836 63 q 536 -26 642 -26 q 265 57 390 -26 l 181 -28 l 45 111 l 127 195 m 802 871 l 888 958 l 1028 821 l 941 734 q 1021 519 1007 635 l 819 519 q 764 637 800 590 q 663 722 724 692 q 534 752 602 752 q 406 722 467 752 q 304 637 346 692 q 252 519 267 587 l 50 519 q 160 774 67 663 q 326 904 229 857 q 534 951 425 951 q 802 871 678 951 z "},"¿":{"ha":748,"x_min":45,"x_max":704,"o":"m 470 928 l 470 733 l 270 733 l 270 928 l 470 928 m 470 641 l 470 446 l 412 446 q 288 413 327 446 q 241 311 241 374 q 279 215 241 254 q 372 177 316 177 q 465 211 430 177 q 508 311 499 245 l 704 311 q 637 115 693 189 q 372 -18 536 -18 q 144 73 240 -18 q 45 307 45 168 q 121 522 45 431 q 264 621 181 594 q 470 641 318 637 z "},"¡":{"ha":441,"x_min":120,"x_max":320,"o":"m 320 928 l 320 733 l 120 733 l 120 928 l 320 928 m 320 621 l 320 0 l 120 0 l 120 621 l 320 621 z "},"¬":{"ha":694,"x_min":46,"x_max":648,"o":"m 441 0 l 441 218 l 46 218 l 46 404 l 648 404 l 648 0 l 441 0 z "},"√":{"ha":926,"x_min":0,"x_max":926,"o":"m 926 1148 l 926 982 l 692 982 l 440 0 l 206 0 l 123 355 l 0 355 l 0 522 l 237 522 l 276 374 q 305 176 287 328 l 317 176 q 352 384 333 290 q 408 616 372 477 l 545 1148 l 926 1148 z "},"ƒ":{"ha":756,"x_min":54,"x_max":776,"o":"m 160 443 l 54 443 l 54 637 l 194 637 l 222 791 q 264 939 241 901 q 369 1036 302 1002 q 498 1067 429 1067 q 663 1015 591 1067 q 776 791 768 939 l 569 791 q 498 870 559 870 q 450 849 469 870 q 429 791 435 833 l 262 -148 l 56 -148 l 160 443 m 478 443 l 512 637 l 699 637 l 699 443 l 478 443 z "},"≈":{"ha":694,"x_min":12,"x_max":683,"o":"m 115 484 l 12 556 q 70 665 41 627 q 218 747 132 747 q 366 702 263 747 q 484 663 454 663 q 580 736 535 663 l 683 665 q 617 545 648 583 q 478 472 558 472 q 389 494 444 472 q 292 534 366 503 q 210 555 240 555 q 115 484 161 555 m 115 181 l 12 253 q 70 362 41 324 q 218 444 132 444 q 366 400 264 444 q 484 363 453 363 q 580 434 535 363 l 683 361 q 617 243 648 280 q 478 170 558 170 q 389 191 444 170 q 292 231 365 201 q 210 252 241 252 q 115 181 161 252 z "},"∆":{"ha":901,"x_min":12,"x_max":890,"o":"m 12 0 l 345 926 l 553 926 l 890 0 l 12 0 m 268 174 l 629 174 l 451 713 l 268 174 z "},"«":{"ha":668,"x_min":93,"x_max":520,"o":"m 520 247 l 366 247 l 289 463 l 366 676 l 520 676 l 446 463 l 520 247 m 324 247 l 169 247 l 93 463 l 169 676 l 324 676 l 250 463 l 324 247 z "},"»":{"ha":668,"x_min":148,"x_max":575,"o":"m 148 247 l 222 463 l 148 676 l 303 676 l 379 463 l 303 247 l 148 247 m 344 247 l 419 463 l 344 676 l 499 676 l 575 463 l 499 247 l 344 247 z "},"…":{"ha":1322,"x_min":120,"x_max":1202,"o":"m 120 0 l 120 195 l 320 195 l 320 0 l 120 0 m 561 0 l 561 195 l 761 195 l 761 0 l 561 0 m 1002 0 l 1002 195 l 1202 195 l 1202 0 l 1002 0 z "},"À":{"ha":877,"x_min":-70,"x_max":930,"o":"m -70 0 l 256 634 l 368 416 l 153 0 l -70 0 m 706 0 l 625 155 l 348 155 l 448 350 l 526 350 l 317 754 l 429 971 l 930 0 l 706 0 m 537 1000 l 365 1000 l 229 1221 l 400 1221 l 537 1000 z "},"Ã":{"ha":877,"x_min":-70,"x_max":930,"o":"m -70 0 l 256 634 l 368 416 l 153 0 l -70 0 m 706 0 l 625 155 l 348 155 l 448 350 l 526 350 l 317 754 l 429 971 l 930 0 l 706 0 m 382 1014 l 249 1014 q 263 1118 251 1086 q 359 1190 290 1190 q 443 1166 388 1190 q 478 1156 469 1156 q 500 1185 496 1156 l 628 1185 q 624 1116 627 1141 q 602 1055 619 1082 q 559 1017 584 1028 q 510 1008 540 1008 q 435 1028 488 1008 q 401 1038 410 1038 q 382 1014 385 1038 z "},"Õ":{"ha":1073,"x_min":51,"x_max":1022,"o":"m 51 407 l 253 407 q 306 289 268 338 q 408 204 347 234 q 535 174 468 174 q 712 234 634 174 q 820 407 791 296 l 1022 407 q 905 143 1002 256 q 741 19 837 63 q 536 -26 643 -26 q 263 58 387 -26 q 79 290 135 146 q 51 407 58 342 m 253 519 l 51 519 q 161 774 68 663 q 327 904 231 858 q 536 951 427 951 q 801 874 680 951 q 993 637 933 789 q 1022 519 1013 584 l 820 519 q 766 637 802 590 q 664 722 725 692 q 535 752 603 752 q 408 722 468 752 q 306 637 347 692 q 253 519 268 587 m 479 1014 l 347 1014 q 361 1118 349 1086 q 457 1190 387 1190 q 541 1166 486 1190 q 576 1156 567 1156 q 597 1185 594 1156 l 726 1185 q 722 1116 725 1141 q 699 1055 717 1082 q 657 1017 682 1028 q 608 1008 637 1008 q 533 1028 585 1008 q 498 1038 508 1038 q 479 1014 483 1038 z "},"Œ":{"ha":1254,"x_min":51,"x_max":1172,"o":"m 693 -9 q 553 -26 617 -26 q 182 123 322 -26 q 51 462 51 263 q 188 803 51 663 q 553 951 332 951 q 693 939 606 951 l 693 738 q 564 747 609 747 q 359 686 437 747 q 276 581 304 644 q 250 463 250 525 q 334 258 250 343 q 566 173 420 173 q 693 190 623 173 l 693 -9 m 806 0 l 806 195 l 1172 195 l 1172 0 l 806 0 m 806 366 l 806 561 l 1172 561 l 1172 366 l 806 366 m 806 734 l 806 928 l 1172 928 l 1172 734 l 806 734 z "},"œ":{"ha":1254,"x_min":51,"x_max":1172,"o":"m 693 -9 q 553 -26 617 -26 q 182 123 322 -26 q 51 462 51 263 q 188 803 51 663 q 553 951 332 951 q 693 939 606 951 l 693 738 q 564 747 609 747 q 359 686 437 747 q 276 581 304 644 q 250 463 250 525 q 334 258 250 343 q 566 173 420 173 q 693 190 623 173 l 693 -9 m 806 0 l 806 195 l 1172 195 l 1172 0 l 806 0 m 806 366 l 806 561 l 1172 561 l 1172 366 l 806 366 m 806 734 l 806 928 l 1172 928 l 1172 734 l 806 734 z "},"–":{"ha":833,"x_min":51,"x_max":783,"o":"m 51 364 l 51 562 l 783 562 l 783 364 l 51 364 z "},"—":{"ha":1199,"x_min":51,"x_max":1148,"o":"m 51 364 l 51 562 l 1148 562 l 1148 364 l 51 364 z "},"“":{"ha":705,"x_min":120,"x_max":585,"o":"m 320 954 l 320 556 l 120 556 l 120 755 l 320 954 m 585 954 l 585 556 l 385 556 l 385 755 l 585 954 z "},"”":{"ha":705,"x_min":120,"x_max":585,"o":"m 120 531 l 120 928 l 320 928 l 320 730 l 120 531 m 385 531 l 385 928 l 585 928 l 585 730 l 385 531 z "},"‘":{"ha":441,"x_min":120,"x_max":320,"o":"m 320 954 l 320 555 l 120 555 l 120 755 l 320 954 z "},"’":{"ha":441,"x_min":120,"x_max":320,"o":"m 120 530 l 120 928 l 320 928 l 320 729 l 120 530 z "},"÷":{"ha":833,"x_min":51,"x_max":783,"o":"m 51 365 l 51 560 l 783 560 l 783 365 l 51 365 m 317 60 l 317 255 l 517 255 l 517 60 l 317 60 m 317 671 l 317 867 l 517 867 l 517 671 l 317 671 z "},"◊":{"ha":926,"x_min":102,"x_max":824,"o":"m 463 962 l 824 463 l 463 -36 l 102 463 l 463 962 m 463 839 l 189 463 l 463 87 l 736 463 l 463 839 z "},"ÿ":{"ha":712,"x_min":-92,"x_max":806,"o":"m 228 0 l 228 476 l 559 928 l 806 928 l 428 411 l 428 0 l 228 0 m 157 576 l -92 928 l 153 928 l 281 745 l 157 576 m 151 1019 l 151 1185 l 317 1185 l 317 1019 l 151 1019 m 395 1019 l 395 1185 l 561 1185 l 561 1019 l 395 1019 z "},"Ÿ":{"ha":712,"x_min":-92,"x_max":806,"o":"m 228 0 l 228 476 l 559 928 l 806 928 l 428 411 l 428 0 l 228 0 m 157 576 l -92 928 l 153 928 l 281 745 l 157 576 m 151 1019 l 151 1185 l 317 1185 l 317 1019 l 151 1019 m 395 1019 l 395 1185 l 561 1185 l 561 1019 l 395 1019 z "},"∕":{"ha":164,"x_min":-132,"x_max":296,"o":"m -132 0 l 170 928 l 296 928 l -6 0 l -132 0 z "},"¤":{"ha":833,"x_min":32,"x_max":801,"o":"m 218 161 l 136 80 l 32 184 l 112 264 q 52 465 52 359 q 113 665 52 571 l 32 746 l 136 850 l 218 769 q 372 825 290 817 l 372 675 q 284 636 321 664 q 199 466 199 571 q 284 296 199 359 q 372 256 319 269 l 372 106 q 218 161 290 115 m 615 769 l 696 850 l 801 746 l 720 665 q 781 465 781 573 q 721 264 781 359 l 801 184 l 696 80 l 615 161 q 461 106 542 115 l 461 256 q 549 296 513 269 q 633 466 633 359 q 549 636 633 571 q 461 675 512 664 l 461 825 q 615 769 543 817 z "},"‹":{"ha":472,"x_min":93,"x_max":324,"o":"m 324 247 l 169 247 l 93 463 l 169 676 l 324 676 l 250 463 l 324 247 z "},"›":{"ha":472,"x_min":148,"x_max":379,"o":"m 148 247 l 222 463 l 148 676 l 303 676 l 379 463 l 303 247 l 148 247 z "},"":{"ha":1158,"x_min":83,"x_max":736,"o":"m 83 0 l 83 928 l 283 928 l 283 0 l 83 0 m 388 366 l 388 561 l 736 561 l 736 366 l 388 366 m 388 734 l 388 928 l 736 928 l 736 734 l 388 734 m 83 0 l 83 928 l 283 928 l 283 0 l 83 0 z "},"":{"ha":1421,"x_min":83,"x_max":1421,"o":"m 83 0 l 83 928 l 283 928 l 283 0 l 83 0 m 388 366 l 388 561 l 736 561 l 736 366 l 388 366 m 388 734 l 388 928 l 736 928 l 736 734 l 388 734 m 865 0 l 865 928 l 1065 928 l 1065 0 l 865 0 m 1153 0 l 1153 195 l 1421 195 l 1421 0 l 1153 0 z "},"‡":{"ha":689,"x_min":37,"x_max":652,"o":"m 245 481 l 37 481 l 37 679 l 245 679 l 245 928 l 445 928 l 445 679 l 652 679 l 652 481 l 445 481 l 445 299 l 652 299 l 652 102 l 445 102 l 445 -148 l 245 -148 l 245 102 l 37 102 l 37 299 l 245 299 l 245 481 z "},"∙":{"ha":441,"x_min":120,"x_max":320,"o":"m 120 365 l 120 560 l 320 560 l 320 365 l 120 365 z "},"‚":{"ha":441,"x_min":120,"x_max":320,"o":"m 120 -203 l 120 195 l 320 195 l 320 -4 l 120 -203 z "},"„":{"ha":705,"x_min":120,"x_max":585,"o":"m 120 -203 l 120 195 l 320 195 l 320 -4 l 120 -203 m 385 -203 l 385 195 l 585 195 l 585 -4 l 385 -203 z "},"‰":{"ha":2088,"x_min":46,"x_max":2042,"o":"m 46 620 l 174 620 q 205 548 183 578 q 337 482 256 482 q 469 548 420 482 q 501 620 490 576 l 629 620 q 559 456 617 525 q 460 382 518 409 q 338 355 401 355 q 174 406 248 355 q 46 620 62 481 m 174 677 l 46 677 q 113 835 57 768 q 212 912 154 884 q 338 941 272 941 q 496 895 424 941 q 629 677 611 821 l 501 677 q 469 749 490 721 q 337 814 420 814 q 205 748 256 814 q 174 677 183 719 m 814 250 l 943 250 q 974 178 951 208 q 1105 112 1024 112 q 1238 178 1188 112 q 1270 250 1259 205 l 1398 250 q 1327 86 1385 155 q 1229 12 1286 39 q 1106 -15 1171 -15 q 943 35 1017 -15 q 814 250 831 111 m 943 307 l 814 307 q 881 465 825 398 q 981 543 923 515 q 1106 571 1040 571 q 1265 524 1192 571 q 1398 307 1379 451 l 1270 307 q 1238 378 1259 351 q 1105 444 1188 444 q 974 378 1024 444 q 943 307 951 349 m 1458 250 l 1587 250 q 1619 178 1598 205 q 1751 112 1668 112 q 1883 178 1832 112 q 1914 250 1905 208 l 2042 250 q 1976 91 2031 158 q 1876 14 1933 41 q 1750 -15 1816 -15 q 1592 32 1664 -15 q 1458 250 1477 105 m 1586 307 l 1458 307 q 1525 465 1469 398 q 1625 543 1567 515 q 1750 571 1685 571 q 1908 524 1836 571 q 2042 307 2023 451 l 1914 307 q 1882 378 1903 351 q 1749 444 1832 444 q 1617 378 1668 444 q 1586 307 1596 349 m 513 0 l 816 928 l 941 928 l 639 0 l 513 0 z "},"Â":{"ha":877,"x_min":-70,"x_max":930,"o":"m -70 0 l 256 634 l 368 416 l 153 0 l -70 0 m 706 0 l 625 155 l 348 155 l 448 350 l 526 350 l 317 754 l 429 971 l 930 0 l 706 0 m 195 1000 l 358 1217 l 518 1217 l 682 1000 l 500 1000 l 438 1082 l 376 1000 l 195 1000 z "},"Ê":{"ha":852,"x_min":93,"x_max":772,"o":"m 93 0 l 93 928 l 293 928 l 293 0 l 93 0 m 406 0 l 406 195 l 772 195 l 772 0 l 406 0 m 406 366 l 406 561 l 772 561 l 772 366 l 406 366 m 406 734 l 406 928 l 772 928 l 772 734 l 406 734 m 184 1000 l 347 1217 l 507 1217 l 670 1000 l 488 1000 l 427 1082 l 365 1000 l 184 1000 z "},"Á":{"ha":877,"x_min":-70,"x_max":930,"o":"m -70 0 l 256 634 l 368 416 l 153 0 l -70 0 m 706 0 l 625 155 l 348 155 l 448 350 l 526 350 l 317 754 l 429 971 l 930 0 l 706 0 m 340 1000 l 477 1221 l 648 1221 l 512 1000 l 340 1000 z "},"Ë":{"ha":852,"x_min":93,"x_max":772,"o":"m 93 0 l 93 928 l 293 928 l 293 0 l 93 0 m 406 0 l 406 195 l 772 195 l 772 0 l 406 0 m 406 366 l 406 561 l 772 561 l 772 366 l 406 366 m 406 734 l 406 928 l 772 928 l 772 734 l 406 734 m 222 1019 l 222 1185 l 387 1185 l 387 1019 l 222 1019 m 466 1019 l 466 1185 l 631 1185 l 631 1019 l 466 1019 z "},"È":{"ha":852,"x_min":93,"x_max":772,"o":"m 93 0 l 93 928 l 293 928 l 293 0 l 93 0 m 406 0 l 406 195 l 772 195 l 772 0 l 406 0 m 406 366 l 406 561 l 772 561 l 772 366 l 406 366 m 406 734 l 406 928 l 772 928 l 772 734 l 406 734 m 526 1000 l 353 1000 l 217 1221 l 389 1221 l 526 1000 z "},"Í":{"ha":385,"x_min":93,"x_max":403,"o":"m 93 0 l 93 928 l 293 928 l 293 0 l 93 0 m 94 1000 l 231 1221 l 403 1221 l 267 1000 l 94 1000 z "},"Î":{"ha":385,"x_min":-50,"x_max":436,"o":"m 93 0 l 93 928 l 293 928 l 293 0 l 93 0 m -50 1000 l 113 1217 l 273 1217 l 436 1000 l 254 1000 l 193 1082 l 131 1000 l -50 1000 z "},"Ï":{"ha":385,"x_min":6,"x_max":379,"o":"m 92 0 l 92 928 l 292 928 l 292 0 l 92 0 m 6 1028 l 6 1185 l 162 1185 l 162 1028 l 6 1028 m 223 1028 l 223 1185 l 379 1185 l 379 1028 l 223 1028 z "},"Ì":{"ha":385,"x_min":-17,"x_max":293,"o":"m 93 0 l 93 928 l 293 928 l 293 0 l 93 0 m 292 1000 l 119 1000 l -17 1221 l 155 1221 l 292 1000 z "},"Ó":{"ha":1073,"x_min":51,"x_max":1022,"o":"m 51 407 l 253 407 q 306 289 268 338 q 408 204 347 234 q 535 174 468 174 q 712 234 634 174 q 820 407 791 296 l 1022 407 q 905 143 1002 256 q 741 19 837 63 q 536 -26 643 -26 q 263 58 387 -26 q 79 290 135 146 q 51 407 58 342 m 253 519 l 51 519 q 161 774 68 663 q 327 904 231 858 q 536 951 427 951 q 801 874 680 951 q 993 637 933 789 q 1022 519 1013 584 l 820 519 q 766 637 802 590 q 664 722 725 692 q 535 752 603 752 q 408 722 468 752 q 306 637 347 692 q 253 519 268 587 m 437 1000 l 574 1221 l 746 1221 l 610 1000 l 437 1000 z "},"Ô":{"ha":1073,"x_min":51,"x_max":1022,"o":"m 51 407 l 253 407 q 306 289 268 338 q 408 204 347 234 q 535 174 468 174 q 712 234 634 174 q 820 407 791 296 l 1022 407 q 905 143 1002 256 q 741 19 837 63 q 536 -26 643 -26 q 263 58 387 -26 q 79 290 135 146 q 51 407 58 342 m 253 519 l 51 519 q 161 774 68 663 q 327 904 231 858 q 536 951 427 951 q 801 874 680 951 q 993 637 933 789 q 1022 519 1013 584 l 820 519 q 766 637 802 590 q 664 722 725 692 q 535 752 603 752 q 408 722 468 752 q 306 637 347 692 q 253 519 268 587 m 294 1000 l 456 1217 l 616 1217 l 780 1000 l 598 1000 l 536 1082 l 475 1000 l 294 1000 z "},"":{"ha":926,"x_min":45,"x_max":892,"o":"m 667 960 q 614 800 667 865 q 460 720 552 722 q 517 882 463 819 q 667 960 578 952 m 865 634 q 802 576 823 602 q 753 441 753 516 q 826 276 753 342 q 892 234 852 252 q 797 60 847 125 q 659 -37 723 -37 q 569 -12 625 -37 q 497 4 536 4 q 416 -7 448 4 q 376 -24 406 -12 q 313 -39 342 -39 q 237 -8 277 -39 q 161 75 197 22 q 45 431 45 248 q 67 555 45 495 q 127 657 89 614 q 303 730 195 730 q 420 703 347 730 q 479 688 458 688 q 559 711 499 688 q 665 733 621 733 q 865 634 793 733 z "},"Ò":{"ha":1073,"x_min":51,"x_max":1022,"o":"m 51 407 l 253 407 q 306 289 268 338 q 408 204 347 234 q 535 174 468 174 q 712 234 634 174 q 820 407 791 296 l 1022 407 q 905 143 1002 256 q 741 19 837 63 q 536 -26 643 -26 q 263 58 387 -26 q 79 290 135 146 q 51 407 58 342 m 253 519 l 51 519 q 161 774 68 663 q 327 904 231 858 q 536 951 427 951 q 801 874 680 951 q 993 637 933 789 q 1022 519 1013 584 l 820 519 q 766 637 802 590 q 664 722 725 692 q 535 752 603 752 q 408 722 468 752 q 306 637 347 692 q 253 519 268 587 m 635 1000 l 463 1000 l 327 1221 l 498 1221 l 635 1000 z "},"Ú":{"ha":930,"x_min":83,"x_max":847,"o":"m 83 928 l 283 928 l 283 417 q 292 311 283 345 q 409 186 311 222 l 409 -18 q 283 26 343 -7 q 180 107 224 58 q 95 269 117 176 q 83 399 83 317 l 83 928 m 647 928 l 847 928 l 847 399 q 814 203 846 279 q 656 31 767 97 q 519 -18 588 -8 l 519 186 q 618 258 585 208 q 644 339 638 289 q 647 417 647 366 l 647 928 m 366 1000 l 503 1221 l 675 1221 l 538 1000 l 366 1000 z "},"Û":{"ha":930,"x_min":83,"x_max":847,"o":"m 83 928 l 283 928 l 283 417 q 292 311 283 345 q 409 186 311 222 l 409 -18 q 283 26 343 -7 q 180 107 224 58 q 95 269 117 176 q 83 399 83 317 l 83 928 m 647 928 l 847 928 l 847 399 q 814 203 846 279 q 656 31 767 97 q 519 -18 588 -8 l 519 186 q 618 258 585 208 q 644 339 638 289 q 647 417 647 366 l 647 928 m 222 1000 l 385 1217 l 545 1217 l 709 1000 l 527 1000 l 465 1082 l 404 1000 l 222 1000 z "},"Ù":{"ha":930,"x_min":83,"x_max":847,"o":"m 83 928 l 283 928 l 283 417 q 292 311 283 345 q 409 186 311 222 l 409 -18 q 283 26 343 -7 q 180 107 224 58 q 95 269 117 176 q 83 399 83 317 l 83 928 m 647 928 l 847 928 l 847 399 q 814 203 846 279 q 656 31 767 97 q 519 -18 588 -8 l 519 186 q 618 258 585 208 q 644 339 638 289 q 647 417 647 366 l 647 928 m 564 1000 l 392 1000 l 256 1221 l 427 1221 l 564 1000 z "},"ı":{"ha":385,"x_min":93,"x_max":293,"o":"m 93 0 l 93 928 l 293 928 l 293 0 l 93 0 z "},"ˆ":{"ha":694,"x_min":104,"x_max":591,"o":"m 104 1000 l 267 1217 l 427 1217 l 591 1000 l 409 1000 l 347 1082 l 286 1000 l 104 1000 z "},"˜":{"ha":694,"x_min":158,"x_max":537,"o":"m 291 1014 l 158 1014 q 172 1118 160 1086 q 269 1190 199 1190 q 352 1166 297 1190 q 387 1156 378 1156 q 409 1185 406 1156 l 537 1185 q 533 1116 536 1141 q 511 1055 528 1082 q 469 1017 493 1028 q 419 1008 449 1008 q 345 1028 397 1008 q 310 1038 319 1038 q 291 1014 294 1038 z "},"ˉ":{"ha":694,"x_min":164,"x_max":530,"o":"m 164 1027 l 164 1187 l 530 1187 l 530 1027 l 164 1027 z "},"˘":{"ha":694,"x_min":149,"x_max":546,"o":"m 149 1190 l 279 1190 q 291 1156 282 1170 q 347 1126 311 1126 q 404 1156 384 1126 q 416 1190 412 1170 l 546 1190 q 501 1074 539 1125 q 347 997 444 997 q 184 1085 245 997 q 149 1190 155 1129 z "},"˙":{"ha":694,"x_min":264,"x_max":430,"o":"m 264 1019 l 264 1185 l 430 1185 l 430 1019 l 264 1019 z "},"˚":{"ha":694,"x_min":211,"x_max":484,"o":"m 349 1255 q 444 1215 404 1255 q 484 1118 484 1175 q 444 1021 484 1061 q 348 981 404 981 q 251 1021 291 981 q 211 1118 211 1061 q 251 1215 211 1175 q 349 1255 292 1255 m 347 1153 q 323 1143 333 1153 q 313 1118 313 1133 q 323 1093 313 1103 q 348 1083 333 1083 q 372 1093 362 1083 q 382 1118 382 1103 q 372 1143 382 1133 q 347 1153 362 1153 z "},"¸":{"ha":694,"x_min":197,"x_max":519,"o":"m 309 -74 q 423 -95 378 -75 q 519 -237 519 -136 q 466 -358 519 -311 q 338 -404 416 -404 q 197 -350 256 -404 l 288 -273 q 329 -281 312 -281 q 368 -268 352 -281 q 387 -227 387 -252 q 309 -172 387 -176 l 309 -74 z "},"˝":{"ha":694,"x_min":128,"x_max":705,"o":"m 128 1000 l 265 1221 l 418 1221 l 282 1000 l 128 1000 m 415 1000 l 552 1221 l 705 1221 l 569 1000 l 415 1000 z "},"˛":{"ha":694,"x_min":420,"x_max":663,"o":"m 663 -325 q 600 -333 627 -333 q 467 -285 517 -333 q 420 -178 420 -240 q 464 -82 420 -123 q 506 -51 477 -70 l 659 -51 q 603 -95 622 -77 q 576 -148 576 -121 q 593 -181 576 -168 q 629 -195 608 -195 q 663 -188 642 -195 l 663 -325 z "},"ˇ":{"ha":694,"x_min":104,"x_max":591,"o":"m 591 1217 l 428 1000 l 268 1000 l 104 1217 l 286 1217 l 348 1136 l 409 1217 l 591 1217 z "},"Ł":{"ha":648,"x_min":-31,"x_max":648,"o":"m 93 332 l -31 239 l -31 432 l 93 525 l 93 928 l 293 928 l 293 648 l 466 781 l 466 587 l 293 454 l 293 0 l 93 0 l 93 332 m 380 0 l 380 195 l 648 195 l 648 0 l 380 0 z "},"ł":{"ha":648,"x_min":-31,"x_max":648,"o":"m 93 332 l -31 239 l -31 432 l 93 525 l 93 928 l 293 928 l 293 648 l 466 781 l 466 587 l 293 454 l 293 0 l 93 0 l 93 332 m 380 0 l 380 195 l 648 195 l 648 0 l 380 0 z "},"Š":{"ha":709,"x_min":45,"x_max":661,"o":"m 45 279 l 243 279 q 272 205 250 231 q 353 170 303 170 q 433 205 403 170 q 460 279 460 237 q 437 347 460 319 q 384 382 421 366 l 475 559 q 661 283 661 475 q 579 72 661 160 q 353 -26 489 -26 q 168 35 249 -26 q 45 279 54 122 m 618 676 l 411 676 q 338 755 401 755 q 279 726 301 755 q 264 680 264 706 q 306 615 264 635 q 366 598 319 609 l 275 418 q 146 484 191 441 q 64 679 64 559 q 137 866 64 789 q 340 951 217 951 q 505 900 434 951 q 618 676 610 823 m 597 1217 l 435 1000 l 275 1000 l 111 1217 l 293 1217 l 355 1136 l 416 1217 l 597 1217 z "},"š":{"ha":709,"x_min":45,"x_max":661,"o":"m 45 279 l 243 279 q 272 205 250 231 q 353 170 303 170 q 433 205 403 170 q 460 279 460 237 q 437 347 460 319 q 384 382 421 366 l 475 559 q 661 283 661 475 q 579 72 661 160 q 353 -26 489 -26 q 168 35 249 -26 q 45 279 54 122 m 618 676 l 411 676 q 338 755 401 755 q 279 726 301 755 q 264 680 264 706 q 306 615 264 635 q 366 598 319 609 l 275 418 q 146 484 191 441 q 64 679 64 559 q 137 866 64 789 q 340 951 217 951 q 505 900 434 951 q 618 676 610 823 m 597 1217 l 435 1000 l 275 1000 l 111 1217 l 293 1217 l 355 1136 l 416 1217 l 597 1217 z "},"Ž":{"ha":825,"x_min":-37,"x_max":836,"o":"m -37 0 l 94 195 l 836 195 l 836 0 l -37 0 m 168 307 l 376 620 l 616 620 l 408 307 l 168 307 m 19 734 l 19 928 l 822 928 l 692 734 l 19 734 m 665 1217 l 503 1000 l 342 1000 l 179 1217 l 361 1217 l 422 1136 l 484 1217 l 665 1217 z "},"ž":{"ha":825,"x_min":-37,"x_max":836,"o":"m -37 0 l 94 195 l 836 195 l 836 0 l -37 0 m 168 307 l 376 620 l 616 620 l 408 307 l 168 307 m 19 734 l 19 928 l 822 928 l 692 734 l 19 734 m 665 1217 l 503 1000 l 342 1000 l 179 1217 l 361 1217 l 422 1136 l 484 1217 l 665 1217 z "},"¦":{"ha":694,"x_min":241,"x_max":454,"o":"m 241 926 l 454 926 l 454 437 l 241 437 l 241 926 m 241 213 l 454 213 l 454 -231 l 241 -231 l 241 213 z "},"Ð":{"ha":1021,"x_min":-18,"x_max":971,"o":"m 93 0 l 93 380 l -18 380 l -18 552 l 93 552 l 93 928 l 293 928 l 293 0 l 93 0 m 404 0 l 404 195 l 476 195 q 608 214 560 195 q 736 327 688 246 q 772 462 772 389 q 730 610 772 543 q 597 717 680 687 q 454 733 550 733 l 404 733 l 404 928 l 475 928 q 669 900 589 928 q 888 728 800 854 q 971 465 971 609 q 895 207 971 324 q 667 25 806 73 q 483 0 592 0 l 404 0 m 407 380 l 407 552 l 606 552 l 606 380 l 407 380 z "},"ð":{"ha":1021,"x_min":-18,"x_max":971,"o":"m 93 0 l 93 380 l -18 380 l -18 552 l 93 552 l 93 928 l 293 928 l 293 0 l 93 0 m 404 0 l 404 195 l 476 195 q 608 214 560 195 q 736 327 688 246 q 772 462 772 389 q 730 610 772 543 q 597 717 680 687 q 454 733 550 733 l 404 733 l 404 928 l 475 928 q 669 900 589 928 q 888 728 800 854 q 971 465 971 609 q 895 207 971 324 q 667 25 806 73 q 483 0 592 0 l 404 0 m 407 380 l 407 552 l 606 552 l 606 380 l 407 380 z "},"Ý":{"ha":712,"x_min":-92,"x_max":806,"o":"m 228 0 l 228 476 l 559 928 l 806 928 l 428 411 l 428 0 l 228 0 m 157 576 l -92 928 l 153 928 l 281 745 l 157 576 m 285 1000 l 422 1221 l 593 1221 l 457 1000 l 285 1000 z "},"ý":{"ha":712,"x_min":-92,"x_max":806,"o":"m 228 0 l 228 476 l 559 928 l 806 928 l 428 411 l 428 0 l 228 0 m 157 576 l -92 928 l 153 928 l 281 745 l 157 576 m 285 1000 l 422 1221 l 593 1221 l 457 1000 l 285 1000 z "},"Þ":{"ha":816,"x_min":83,"x_max":791,"o":"m 83 0 l 83 928 l 283 928 l 283 0 l 83 0 m 397 191 l 397 386 l 462 386 q 545 397 519 386 q 593 472 593 417 q 559 540 593 517 q 471 557 533 557 l 397 557 l 397 753 l 460 753 q 605 736 555 753 q 745 627 693 705 q 791 473 791 557 q 749 325 791 393 q 622 213 703 247 q 473 191 569 191 l 397 191 z "},"þ":{"ha":816,"x_min":83,"x_max":791,"o":"m 83 0 l 83 928 l 283 928 l 283 0 l 83 0 m 397 191 l 397 386 l 462 386 q 545 397 519 386 q 593 472 593 417 q 559 540 593 517 q 471 557 533 557 l 397 557 l 397 753 l 460 753 q 605 736 555 753 q 745 627 693 705 q 791 473 791 557 q 749 325 791 393 q 622 213 703 247 q 473 191 569 191 l 397 191 z "},"−":{"ha":833,"x_min":51,"x_max":783,"o":"m 51 365 l 51 560 l 783 560 l 783 365 l 51 365 z "},"×":{"ha":833,"x_min":62,"x_max":772,"o":"m 279 463 l 62 680 l 200 817 l 417 601 l 633 817 l 772 680 l 555 463 l 772 246 l 633 109 l 417 325 l 200 109 l 62 246 l 279 463 z "},"¹":{"ha":557,"x_min":168,"x_max":357,"o":"m 220 370 l 220 730 l 168 702 l 168 842 l 357 947 l 357 370 l 220 370 z "},"²":{"ha":557,"x_min":29,"x_max":479,"o":"m 29 370 l 135 494 l 479 494 l 479 370 l 29 370 m 360 555 l 187 555 l 300 689 q 336 753 336 731 q 317 797 336 779 q 271 814 298 814 q 201 739 206 814 l 66 739 q 82 826 66 791 q 165 914 106 882 q 272 941 214 941 q 420 882 360 941 q 475 754 475 827 q 450 668 475 709 q 410 614 437 646 l 360 555 z "},"³":{"ha":557,"x_min":60,"x_max":489,"o":"m 60 562 l 197 562 q 216 507 203 523 q 275 481 237 481 q 332 502 311 481 q 352 547 352 521 q 351 566 352 555 q 462 646 418 585 q 489 555 489 602 q 431 418 489 476 q 275 356 368 356 q 153 393 208 356 q 60 562 68 450 m 264 589 l 264 713 q 326 764 326 718 q 311 800 326 785 q 271 815 295 815 q 225 792 239 815 q 214 755 218 781 l 80 755 q 119 867 83 823 q 272 939 177 939 q 406 888 351 939 q 460 764 460 839 q 375 617 460 668 q 264 589 333 592 z "},"½":{"ha":1279,"x_min":168,"x_max":1202,"o":"m 220 370 l 220 730 l 168 702 l 168 842 l 357 947 l 357 370 l 220 370 m 426 0 l 728 928 l 854 928 l 551 0 l 426 0 m 751 0 l 857 124 l 1202 124 l 1202 0 l 751 0 m 1082 184 l 909 184 l 1023 319 q 1058 384 1058 361 q 1039 427 1058 409 q 993 444 1021 444 q 924 369 928 444 l 789 369 q 804 456 789 422 q 887 545 828 512 q 994 571 936 571 q 1142 512 1082 571 q 1197 385 1197 458 q 1172 297 1197 339 q 1133 243 1159 275 l 1082 184 z "},"¼":{"ha":1279,"x_min":168,"x_max":1212,"o":"m 220 370 l 220 730 l 168 702 l 168 842 l 357 947 l 357 370 l 220 370 m 426 0 l 728 928 l 854 928 l 551 0 l 426 0 m 689 134 l 814 258 l 939 258 l 939 134 l 689 134 m 1002 0 l 1002 444 l 1139 581 l 1139 258 l 1212 258 l 1212 134 l 1139 134 l 1139 0 l 1002 0 z "},"¾":{"ha":1279,"x_min":60,"x_max":1212,"o":"m 60 562 l 197 562 q 216 507 203 523 q 275 481 237 481 q 332 502 311 481 q 352 547 352 521 q 351 566 352 555 q 462 646 418 585 q 489 555 489 602 q 431 418 489 476 q 275 356 368 356 q 153 393 208 356 q 60 562 68 450 m 264 589 l 264 713 q 326 764 326 718 q 311 800 326 785 q 271 815 295 815 q 225 792 239 815 q 214 755 218 781 l 80 755 q 119 867 83 823 q 272 939 177 939 q 406 888 351 939 q 460 764 460 839 q 375 617 460 668 q 264 589 333 592 m 453 0 l 756 928 l 882 928 l 579 0 l 453 0 m 689 134 l 814 258 l 939 258 l 939 134 l 689 134 m 1002 0 l 1002 444 l 1139 581 l 1139 258 l 1212 258 l 1212 134 l 1139 134 l 1139 0 l 1002 0 z "},"₣":{"ha":1050,"x_min":83,"x_max":1040,"o":"m 484 0 l 484 366 l 388 366 l 388 561 l 484 561 l 484 632 l 644 632 l 644 0 l 484 0 m 83 0 l 83 928 l 283 928 l 283 0 l 83 0 m 388 734 l 388 928 l 736 928 l 736 734 l 388 734 m 733 231 l 733 374 l 782 374 q 842 382 824 374 q 873 432 873 395 q 851 477 873 462 q 789 488 834 488 l 733 488 l 733 632 l 775 632 q 890 620 850 632 q 1003 543 962 597 q 1040 432 1040 492 q 957 275 1040 336 q 874 237 920 247 q 786 231 841 231 l 733 231 m 825 0 l 774 139 l 787 139 q 952 167 884 140 l 1013 0 l 825 0 z "},"Ğ":{"ha":1072,"x_min":51,"x_max":1025,"o":"m 337 1190 l 467 1190 q 479 1156 471 1170 q 536 1126 499 1126 q 592 1156 572 1126 q 604 1190 601 1170 l 734 1190 q 690 1074 728 1125 q 536 997 632 997 q 373 1085 433 997 q 337 1190 344 1129 m 736 253 l 979 253 q 874 108 937 167 q 719 9 806 45 q 539 -26 631 -26 q 279 50 402 -26 q 104 239 165 121 q 51 463 51 342 q 188 804 51 663 q 349 913 257 874 q 540 951 441 951 q 890 800 744 951 l 745 663 q 539 751 652 751 q 326 658 410 751 q 250 463 250 576 q 334 258 250 342 q 538 174 420 174 q 736 253 655 174 m 540 363 l 540 558 l 1015 558 q 1025 461 1025 507 q 1015 363 1025 416 l 540 363 z "},"ğ":{"ha":1072,"x_min":51,"x_max":1025,"o":"m 337 1190 l 467 1190 q 479 1156 471 1170 q 536 1126 499 1126 q 592 1156 572 1126 q 604 1190 601 1170 l 734 1190 q 690 1074 728 1125 q 536 997 632 997 q 373 1085 433 997 q 337 1190 344 1129 m 736 253 l 979 253 q 874 108 937 167 q 719 9 806 45 q 539 -26 631 -26 q 279 50 402 -26 q 104 239 165 121 q 51 463 51 342 q 188 804 51 663 q 349 913 257 874 q 540 951 441 951 q 890 800 744 951 l 745 663 q 539 751 652 751 q 326 658 410 751 q 250 463 250 576 q 334 258 250 342 q 538 174 420 174 q 736 253 655 174 m 540 363 l 540 558 l 1015 558 q 1025 461 1025 507 q 1015 363 1025 416 l 540 363 z "},"İ":{"ha":385,"x_min":93,"x_max":293,"o":"m 110 1019 l 110 1185 l 275 1185 l 275 1019 l 110 1019 m 93 0 l 93 928 l 293 928 l 293 0 l 93 0 z "},"Ş":{"ha":709,"x_min":45,"x_max":661,"o":"m 297 -74 q 411 -95 366 -75 q 507 -237 507 -136 q 454 -358 507 -311 q 326 -404 404 -404 q 184 -350 244 -404 l 275 -273 q 317 -281 300 -281 q 356 -268 340 -281 q 374 -227 374 -252 q 297 -172 374 -176 l 297 -74 m 45 279 l 243 279 q 272 205 250 231 q 353 170 303 170 q 433 205 403 170 q 460 279 460 237 q 437 347 460 319 q 384 382 421 366 l 475 559 q 661 283 661 475 q 579 72 661 160 q 353 -26 489 -26 q 168 35 249 -26 q 45 279 54 122 m 618 676 l 411 676 q 338 755 401 755 q 279 726 301 755 q 264 680 264 706 q 306 615 264 635 q 366 598 319 609 l 275 418 q 146 484 191 441 q 64 679 64 559 q 137 866 64 789 q 340 951 217 951 q 505 900 434 951 q 618 676 610 823 z "},"ş":{"ha":709,"x_min":45,"x_max":661,"o":"m 297 -74 q 411 -95 366 -75 q 507 -237 507 -136 q 454 -358 507 -311 q 326 -404 404 -404 q 184 -350 244 -404 l 275 -273 q 317 -281 300 -281 q 356 -268 340 -281 q 374 -227 374 -252 q 297 -172 374 -176 l 297 -74 m 45 279 l 243 279 q 272 205 250 231 q 353 170 303 170 q 433 205 403 170 q 460 279 460 237 q 437 347 460 319 q 384 382 421 366 l 475 559 q 661 283 661 475 q 579 72 661 160 q 353 -26 489 -26 q 168 35 249 -26 q 45 279 54 122 m 618 676 l 411 676 q 338 755 401 755 q 279 726 301 755 q 264 680 264 706 q 306 615 264 635 q 366 598 319 609 l 275 418 q 146 484 191 441 q 64 679 64 559 q 137 866 64 789 q 340 951 217 951 q 505 900 434 951 q 618 676 610 823 z "},"Ć":{"ha":980,"x_min":51,"x_max":933,"o":"m 437 1000 l 574 1221 l 746 1221 l 610 1000 l 437 1000 m 487 176 l 487 -26 q 241 75 345 -5 q 100 249 150 146 q 51 462 51 349 q 152 760 51 629 q 487 951 274 920 l 487 749 q 349 681 403 729 q 277 582 303 640 q 251 462 251 524 q 278 339 251 398 q 355 239 306 280 q 487 176 407 196 m 598 -26 l 598 176 q 775 287 707 198 l 933 165 q 598 -26 802 -2 m 598 749 l 598 951 q 781 894 697 939 q 931 762 871 844 l 774 638 q 598 749 705 729 z "},"ć":{"ha":980,"x_min":51,"x_max":933,"o":"m 437 1000 l 574 1221 l 746 1221 l 610 1000 l 437 1000 m 487 176 l 487 -26 q 241 75 345 -5 q 100 249 150 146 q 51 462 51 349 q 152 760 51 629 q 487 951 274 920 l 487 749 q 349 681 403 729 q 277 582 303 640 q 251 462 251 524 q 278 339 251 398 q 355 239 306 280 q 487 176 407 196 m 598 -26 l 598 176 q 775 287 707 198 l 933 165 q 598 -26 802 -2 m 598 749 l 598 951 q 781 894 697 939 q 931 762 871 844 l 774 638 q 598 749 705 729 z "},"Č":{"ha":980,"x_min":51,"x_max":933,"o":"m 779 1217 l 616 1000 l 456 1000 l 293 1217 l 475 1217 l 536 1136 l 597 1217 l 779 1217 m 487 176 l 487 -26 q 241 75 345 -5 q 100 249 150 146 q 51 462 51 349 q 152 760 51 629 q 487 951 274 920 l 487 749 q 349 681 403 729 q 277 582 303 640 q 251 462 251 524 q 278 339 251 398 q 355 239 306 280 q 487 176 407 196 m 598 -26 l 598 176 q 775 287 707 198 l 933 165 q 598 -26 802 -2 m 598 749 l 598 951 q 781 894 697 939 q 931 762 871 844 l 774 638 q 598 749 705 729 z "},"č":{"ha":980,"x_min":51,"x_max":933,"o":"m 779 1217 l 616 1000 l 456 1000 l 293 1217 l 475 1217 l 536 1136 l 597 1217 l 779 1217 m 487 176 l 487 -26 q 241 75 345 -5 q 100 249 150 146 q 51 462 51 349 q 152 760 51 629 q 487 951 274 920 l 487 749 q 349 681 403 729 q 277 582 303 640 q 251 462 251 524 q 278 339 251 398 q 355 239 306 280 q 487 176 407 196 m 598 -26 l 598 176 q 775 287 707 198 l 933 165 q 598 -26 802 -2 m 598 749 l 598 951 q 781 894 697 939 q 931 762 871 844 l 774 638 q 598 749 705 729 z "},"đ":{"ha":1021,"x_min":-18,"x_max":971,"o":"m 93 0 l 93 380 l -18 380 l -18 552 l 93 552 l 93 928 l 293 928 l 293 0 l 93 0 m 404 0 l 404 195 l 476 195 q 608 214 560 195 q 736 327 688 246 q 772 462 772 389 q 730 610 772 543 q 597 717 680 687 q 454 733 550 733 l 404 733 l 404 928 l 475 928 q 669 900 589 928 q 888 728 800 854 q 971 465 971 609 q 895 207 971 324 q 667 25 806 73 q 483 0 592 0 l 404 0 m 407 380 l 407 552 l 606 552 l 606 380 l 407 380 z "}," ":{"ha":347,"x_min":0,"x_max":0,"o":""},"­":{"ha":366,"x_min":0,"x_max":366,"o":"m 0 364 l 0 562 l 366 562 l 366 364 l 0 364 z "},"¯":{"ha":694,"x_min":0,"x_max":694,"o":"m 0 1194 l 694 1194 l 694 1000 l 0 1000 l 0 1194 z "},"·":{"ha":441,"x_min":120,"x_max":320,"o":"m 120 365 l 120 560 l 320 560 l 320 365 l 120 365 z "}}}
